<?xml version="1.0" standalone="no"?>
<!DOCTYPE svg PUBLIC "-//W3C//DTD SVG 20010904//EN"
 "http://www.w3.org/TR/2001/REC-SVG-20010904/DTD/svg10.dtd">
<svg version="1.0" xmlns="http://www.w3.org/2000/svg"
 width="412.000000pt" height="412.000000pt" viewBox="0 0 412.000000 412.000000"
 preserveAspectRatio="xMidYMid meet">
<metadata>
Created by potrace 1.14, written by Peter Selinger 2001-2017
</metadata>
<g transform="translate(0.000000,412.000000) scale(0.100000,-0.100000)"
fill="#000000" stroke="none">
<path d="M0 3773 c0 -307 2 -345 15 -327 14 18 14 18 15 -8 0 -15 -7 -33 -15
-42 -18 -17 -19 -38 -4 -53 9 -9 9 -20 0 -44 -15 -45 -15 -176 2 -182 10 -4
10 -6 0 -6 -10 -1 -13 -74 -13 -332 0 -260 3 -330 12 -327 7 3 14 21 16 41 2
21 7 35 11 33 4 -3 8 14 8 37 0 49 47 131 70 123 7 -3 13 0 13 7 0 8 3 7 9 -2
5 -8 7 -21 3 -29 -3 -10 -1 -13 6 -8 7 4 12 18 12 32 0 13 6 24 13 24 14 0 23
16 48 77 7 17 17 29 22 26 4 -3 11 4 14 16 3 12 12 21 20 21 8 0 11 5 8 10 -3
6 -2 10 3 10 6 0 13 11 16 24 3 13 19 37 36 53 29 27 38 52 23 66 -3 4 -11 -1
-18 -10 -10 -14 -13 -11 -19 18 l-6 34 -25 -53 c-14 -30 -31 -52 -40 -52 -9 0
-18 -12 -22 -30 -9 -47 -28 -30 -27 24 1 50 20 77 62 90 26 8 28 21 7 30 -22
8 -18 24 7 28 19 3 22 10 24 58 2 30 4 76 5 103 1 26 6 47 11 47 4 0 8 -7 8
-15 0 -8 5 -15 10 -15 6 0 10 14 10 30 0 42 16 37 26 -7 5 -27 9 -32 11 -17 4
21 17 35 196 207 59 58 107 110 107 116 0 7 35 45 77 86 71 69 82 91 31 64
-14 -8 -23 -8 -27 -1 -4 6 -12 7 -20 3 -10 -6 -9 -11 3 -24 23 -22 20 -29 -11
-25 -20 2 -27 8 -25 21 2 9 -3 17 -11 17 -21 0 -28 -12 -16 -26 7 -9 6 -14 -2
-20 -7 -4 -15 -2 -17 4 -2 7 -10 12 -18 12 -12 0 -12 -4 -3 -21 17 -32 -3 -45
-37 -23 l-29 18 19 -22 c24 -27 13 -42 -13 -18 -18 17 -20 17 -38 -1 -45 -44
-104 -84 -114 -77 -7 4 -9 3 -6 -4 4 -5 -7 -23 -25 -39 -17 -15 -44 -41 -60
-57 -23 -23 -31 -26 -43 -16 -13 11 -9 18 30 48 25 19 45 43 45 53 0 19 25 49
41 49 6 0 8 -4 5 -8 -9 -15 34 -6 52 9 30 28 72 79 72 89 0 5 4 10 8 10 4 0
16 15 27 33 10 17 37 57 59 87 23 30 53 74 67 97 14 24 28 40 32 36 4 -3 7 1
7 10 0 22 20 33 31 16 5 -8 9 -9 9 -3 0 7 16 15 36 18 19 4 42 10 50 13 9 3
14 -2 14 -13 1 -18 1 -18 15 0 9 12 15 15 15 7 0 -10 11 -12 40 -8 22 3 43 1
46 -4 3 -5 -2 -9 -10 -9 -22 0 -20 -17 4 -30 11 -6 20 -9 21 -8 8 31 7 53 -2
64 -9 11 -9 18 0 28 11 13 31 18 119 30 34 4 44 -7 15 -19 -16 -6 -15 -8 7
-20 21 -11 22 -15 9 -20 -9 -3 -24 -25 -34 -48 -22 -54 -60 -85 -86 -69 -25
16 -29 15 -29 -6 0 -10 -7 -28 -16 -40 -9 -13 -14 -25 -11 -28 7 -7 37 7 37
17 0 5 8 9 17 9 15 0 15 -1 1 -12 -8 -7 -21 -28 -27 -47 -11 -34 -11 -34 9
-16 26 24 39 11 15 -15 -19 -21 -19 -21 6 -8 13 7 31 17 39 23 23 14 35 14 91
0 53 -14 99 -7 99 16 0 11 -16 9 -53 -6 -10 -4 -17 -3 -17 3 0 15 74 35 78 22
6 -17 60 -11 72 8 7 11 13 13 16 6 3 -7 14 -9 26 -7 11 3 24 0 28 -7 10 -17
60 -4 60 15 0 8 -7 15 -16 15 -8 0 -12 -4 -9 -10 3 -5 1 -10 -4 -10 -25 0 -9
28 18 32 31 4 61 -11 61 -31 0 -8 8 -10 20 -6 22 7 27 -4 9 -22 -7 -7 -6 -15
5 -26 13 -12 20 -13 41 -4 l25 12 -28 6 c-15 4 -22 7 -17 8 6 0 11 10 11 20 0
13 -13 25 -39 35 -22 8 -36 20 -32 26 3 5 1 10 -4 10 -6 0 -11 -4 -11 -8 0 -4
-14 -9 -31 -10 -26 -2 -30 0 -24 18 6 18 2 20 -32 20 -51 0 -84 -10 -76 -23 3
-5 -8 -2 -25 8 -19 12 -34 30 -37 47 -4 16 -11 25 -17 22 -6 -4 -9 -1 -6 7 3
8 13 14 24 15 26 0 54 14 54 25 0 6 -8 5 -19 -1 -28 -15 -35 -12 -17 6 10 9
24 13 36 9 22 -7 70 21 70 41 0 17 3 16 -38 5 -24 -7 -32 -6 -32 3 0 10 -9 11
-45 1 -25 -6 -50 -16 -57 -23 -20 -20 -32 -13 -13 8 10 11 25 20 34 20 17 0
51 33 51 50 0 13 -198 12 -206 -1 -3 -5 7 -9 21 -9 16 0 24 -4 19 -11 -3 -6
-17 -9 -30 -6 -14 2 -27 0 -30 -4 -3 -5 -12 -9 -20 -9 -11 0 -12 4 -4 19 13
25 -3 36 -23 17 -8 -8 -17 -13 -20 -10 -3 3 -3 -4 0 -17 5 -19 3 -21 -18 -16
-25 7 -79 -11 -79 -26 0 -5 -4 -6 -9 -2 -5 3 -12 1 -16 -4 -3 -6 -12 -8 -21
-4 -13 5 -12 8 3 26 10 11 33 26 51 34 18 7 30 18 27 22 -7 13 -422 14 -430 1
-3 -5 -11 -10 -16 -10 -6 0 -7 5 -4 10 10 17 -57 11 -77 -7 -17 -15 -18 -15
-18 0 0 15 -21 17 -210 17 l-210 0 0 -347z m375 281 c21 -14 46 -23 57 -21 22
6 25 -11 3 -19 -23 -9 -18 -24 8 -24 22 0 83 -57 79 -73 -1 -4 4 -15 13 -23
10 -11 15 -12 15 -3 0 8 7 6 20 -6 10 -9 18 -27 17 -38 -3 -27 -43 -67 -67
-67 -21 0 -27 15 -10 25 7 4 7 12 0 25 -5 10 -10 32 -10 49 0 34 -14 41 -24
14 -6 -14 -9 -15 -16 -4 -5 9 -14 11 -26 6 -33 -15 -53 -13 -46 3 4 11 1 14
-11 9 -11 -4 -14 -2 -10 9 3 7 0 14 -7 14 -7 0 -9 8 -5 20 4 14 -5 32 -36 65
-48 52 -47 74 1 26 33 -33 45 -37 55 -21 3 6 3 10 -2 10 -4 0 -21 11 -37 25
-39 34 -11 33 39 -1z m205 16 c0 -5 -5 -10 -11 -10 -5 0 -7 5 -4 10 3 6 8 10
11 10 2 0 4 -4 4 -10z m637 -6 c-3 -3 -12 -4 -19 -1 -8 3 -5 6 6 6 11 1 17 -2
13 -5z m-7 -38 c0 -3 -4 -8 -10 -11 -5 -3 -10 -1 -10 4 0 6 5 11 10 11 6 0 10
-2 10 -4z m-693 -12 c-3 -3 -12 -4 -19 -1 -8 3 -5 6 6 6 11 1 17 -2 13 -5z
m683 -54 c-6 -11 -13 -20 -16 -20 -2 0 0 9 6 20 6 11 13 20 16 20 2 0 0 -9 -6
-20z m-864 -62 c-1 -13 -11 -28 -25 -34 -13 -7 -27 -18 -32 -25 -4 -8 -11 -10
-15 -6 -4 4 -2 13 4 19 7 7 12 19 12 29 0 12 7 15 28 13 15 -2 21 -1 13 2 -11
5 -11 8 0 15 8 5 15 9 15 9 1 0 1 -10 0 -22z m802 -34 c-2 -11 9 -20 31 -28
19 -6 36 -17 39 -23 5 -16 -20 -17 -36 -1 -9 9 -13 8 -17 -4 -4 -10 -14 -14
-26 -11 -15 4 -17 8 -8 19 11 13 6 18 -14 15 -4 -1 0 10 9 24 19 29 26 32 22
9z m306 -8 c-4 -10 -13 -15 -21 -12 -8 3 -21 6 -29 6 -9 0 -12 5 -9 10 3 6 17
7 31 4 16 -4 24 -2 24 7 0 7 2 10 5 7 3 -3 3 -13 -1 -22z m-1064 -7 c0 -5 -12
-9 -27 -9 -26 0 -26 1 -8 14 20 14 35 12 35 -5z m950 -26 c0 -19 -25 -16 -41
4 -12 15 -12 16 4 10 12 -4 17 -1 17 11 0 15 2 15 10 2 5 -8 10 -21 10 -27z
m-1018 -6 c-12 -6 -22 -14 -22 -18 0 -10 -54 -39 -71 -39 -7 0 8 13 33 29 25
16 49 34 52 40 4 6 12 8 19 4 7 -4 3 -10 -11 -16z m949 0 c-13 -13 -26 -3 -16
12 3 6 11 8 17 5 6 -4 6 -10 -1 -17z m-1031 -11 c0 -2 -7 -7 -16 -10 -8 -3
-12 -2 -9 4 6 10 25 14 25 6z m148 -16 c-7 -10 -14 -17 -17 -15 -4 4 18 35 25
35 2 0 -1 -9 -8 -20z m347 -120 c-3 -5 -11 -10 -16 -10 -6 0 -7 5 -4 10 3 6
11 10 16 10 6 0 7 -4 4 -10z m-137 -59 c3 -8 -1 -12 -9 -9 -7 2 -15 10 -17 17
-3 8 1 12 9 9 7 -2 15 -10 17 -17z m-14 -76 c-4 -8 -10 -15 -15 -15 -4 0 -6 7
-3 15 4 8 10 15 15 15 4 0 6 -7 3 -15z m-54 -95 c0 -5 -4 -10 -10 -10 -5 0
-10 5 -10 10 0 6 5 10 10 10 6 0 10 -4 10 -10z m-32 -25 c-3 -3 -9 2 -12 12
-6 14 -5 15 5 6 7 -7 10 -15 7 -18z m-348 -145 c-8 -5 -19 -10 -25 -10 -5 0
-3 5 5 10 8 5 20 10 25 10 6 0 3 -5 -5 -10z"/>
<path d="M550 3860 c0 -5 5 -10 10 -10 6 0 10 5 10 10 0 6 -4 10 -10 10 -5 0
-10 -4 -10 -10z"/>
<path d="M3207 4089 c10 -17 33 -46 51 -64 17 -19 32 -39 32 -45 0 -6 29 -40
65 -77 73 -74 73 -73 22 -156 -36 -58 -58 -79 -120 -111 -23 -12 -48 -34 -54
-48 -17 -34 -64 -69 -140 -103 -35 -15 -63 -32 -63 -38 0 -5 7 -4 15 3 11 9
15 10 15 1 0 -8 8 -10 21 -6 13 4 19 3 15 -3 -14 -24 138 -21 179 3 16 10 25
9 45 -1 14 -8 21 -14 15 -14 -5 -1 1 -6 14 -11 18 -7 27 -6 33 3 6 10 10 10
18 -2 8 -12 13 -13 29 -3 11 7 26 11 33 8 7 -3 25 12 40 33 15 21 35 38 47 39
12 1 36 9 53 17 34 18 68 21 68 7 0 -5 -13 -14 -30 -20 -16 -5 -30 -15 -30
-22 0 -7 7 -8 18 -4 9 4 29 10 45 13 15 2 30 8 33 13 3 5 10 9 16 9 6 0 3 -9
-7 -20 -26 -28 -6 -25 29 5 30 26 52 32 58 15 2 -6 15 -4 32 5 32 17 60 20 51
6 -15 -25 220 -26 250 -1 8 7 15 25 15 40 0 26 -2 27 -25 17 -14 -7 -25 -15
-25 -18 0 -3 -53 -7 -118 -8 -97 -2 -121 1 -131 13 -8 9 -10 16 -6 16 4 0 0
12 -10 26 -17 27 -17 27 9 22 19 -4 26 -1 26 11 0 13 2 13 9 2 5 -8 11 -9 15
-3 3 6 2 13 -4 17 -16 10 -12 35 8 42 26 9 52 34 46 44 -3 5 -1 9 4 9 5 0 14
11 20 25 6 14 19 25 28 25 19 0 53 38 54 60 0 9 6 25 14 36 13 19 12 20 -22
18 -38 -1 -52 9 -52 36 1 13 3 13 13 -1 10 -14 14 -14 25 -3 12 13 8 18 -10
15 -5 0 -8 5 -8 13 0 11 9 13 33 11 17 -3 27 -1 21 3 -6 4 -14 18 -17 33 -5
20 -1 28 21 41 16 10 38 14 55 11 24 -5 27 -2 27 21 0 26 -1 26 -71 26 -63 0
-70 -2 -65 -17 6 -16 5 -16 -8 0 -16 21 -16 22 -51 -68 -15 -38 -44 -99 -64
-135 -19 -36 -34 -71 -33 -77 2 -7 -4 -25 -12 -40 -18 -35 -76 -91 -76 -74 0
7 -5 9 -11 6 -6 -4 -8 -9 -5 -12 7 -7 -20 -33 -34 -33 -20 0 -62 -33 -50 -40
6 -4 -5 -7 -25 -8 -38 -1 -47 16 -20 38 9 7 13 15 11 18 -3 2 3 21 13 41 10
20 28 92 40 161 12 69 26 147 32 173 5 26 9 52 9 57 0 16 -230 13 -231 -2 0
-7 -1 -51 -2 -98 -2 -82 -9 -110 -27 -110 -4 0 -35 35 -69 78 -94 121 -115
144 -119 134 -2 -6 7 -22 20 -36 47 -51 83 -100 68 -91 -37 21 -101 78 -117
105 -9 17 -21 30 -26 30 -4 0 0 -14 10 -31z m710 -151 c-3 -8 -6 -5 -6 6 -1
11 2 17 5 13 3 -3 4 -12 1 -19z m-525 -30 c15 -17 28 -33 28 -36 0 -7 -69 53
-69 61 -2 15 13 6 41 -25z m618 -37 c0 -6 -4 -13 -10 -16 -5 -3 -10 1 -10 9 0
9 5 16 10 16 6 0 10 -4 10 -9z m-240 -270 c0 -4 -16 -11 -36 -14 -20 -3 -45
-14 -55 -23 -12 -11 -25 -14 -36 -9 -17 8 -17 8 1 13 10 2 33 12 50 22 33 20
76 26 76 11z m-197 -57 c11 -11 -3 -24 -18 -18 -8 4 -12 10 -9 15 6 11 18 12
27 3z m355 -21 c-10 -2 -26 -2 -35 0 -10 3 -2 5 17 5 19 0 27 -2 18 -5z m119
1 c-3 -3 -12 -4 -19 -1 -8 3 -5 6 6 6 11 1 17 -2 13 -5z m-622 -24 c3 -6 -1
-13 -9 -16 -9 -3 -16 -12 -16 -19 0 -7 -8 -16 -17 -20 -15 -5 -16 -4 -5 6 20
21 14 28 -25 31 -37 4 -37 4 -13 15 32 15 77 16 85 3z m-122 -27 c-7 -2 -19
-2 -25 0 -7 3 -2 5 12 5 14 0 19 -2 13 -5z"/>
<path d="M1476 4071 c-3 -5 -15 -7 -26 -4 -15 4 -20 0 -20 -13 0 -15 7 -19 33
-19 20 1 31 6 29 13 -2 10 3 10 19 2 23 -13 78 -4 63 9 -14 13 -92 22 -98 12z"/>
<path d="M1595 4072 c-15 -15 -1 -23 30 -18 27 5 35 3 35 -7 0 -10 8 -13 26
-9 20 3 23 7 12 14 -9 7 -1 8 25 4 20 -2 37 -1 37 5 0 11 4 10 -88 13 -39 1
-74 0 -77 -2z"/>
<path d="M1618 4033 c7 -3 16 -2 19 1 4 3 -2 6 -13 5 -11 0 -14 -3 -6 -6z"/>
<path d="M1438 4016 c-8 -7 -27 -20 -43 -29 -17 -9 -24 -16 -17 -17 19 0 102
46 95 54 -10 9 -20 7 -35 -8z"/>
<path d="M3435 3949 c-4 -12 -2 -26 4 -32 8 -8 11 -2 11 21 0 37 -6 41 -15 11z"/>
<path d="M892 3859 c-18 -12 -31 -23 -29 -25 8 -8 44 9 55 27 15 24 15 24 -26
-2z"/>
<path d="M927 3843 c-4 -3 -7 -11 -7 -17 0 -6 5 -5 12 2 6 6 9 14 7 17 -3 3
-9 2 -12 -2z"/>
<path d="M816 3815 c-16 -12 -17 -15 -4 -15 8 0 21 7 28 15 16 19 1 19 -24 0z"/>
<path d="M1506 3821 c-4 -5 -2 -12 3 -15 5 -4 12 -2 15 3 4 5 2 12 -3 15 -5 4
-12 2 -15 -3z"/>
<path d="M771 3804 c1 -23 15 -43 25 -36 8 5 5 13 -7 26 -11 11 -19 15 -18 10z"/>
<path d="M1520 3780 c0 -5 7 -10 16 -10 8 0 12 5 9 10 -3 6 -10 10 -16 10 -5
0 -9 -4 -9 -10z"/>
<path d="M918 3623 c-88 -116 -93 -125 -76 -117 7 3 40 44 73 90 33 47 66 94
74 105 7 10 11 19 8 19 -3 0 -39 -44 -79 -97z"/>
<path d="M2041 3620 c67 -8 107 -30 135 -73 19 -30 20 -36 8 -99 -13 -67 -32
-102 -95 -169 -33 -36 -67 -49 -126 -49 -64 0 -111 26 -145 79 -29 47 -30 55
-12 166 5 30 5 30 -8 6 -7 -14 -23 -25 -36 -26 -12 -1 -33 -12 -46 -24 -17
-16 -34 -21 -62 -20 -71 4 -204 -30 -204 -51 0 -20 22 -20 46 -1 19 15 41 21
74 21 60 0 72 -20 32 -55 -32 -29 -41 -30 -48 -10 -5 11 -10 13 -19 5 -6 -5
-15 -7 -19 -3 -4 4 -4 0 -1 -9 9 -23 -34 -36 -50 -15 -8 11 -16 13 -29 5 -9
-5 -20 -7 -23 -4 -4 3 -12 1 -20 -5 -8 -7 -13 -8 -13 -1 0 9 13 17 38 24 13 3
35 29 29 34 -8 8 -37 -9 -92 -55 -27 -23 -55 -41 -63 -41 -7 0 -24 -7 -38 -16
-18 -12 -34 -15 -62 -9 -53 10 -275 14 -236 3 18 -5 43 -23 59 -45 23 -29 29
-48 31 -100 1 -34 -2 -63 -7 -63 -5 0 -9 -7 -9 -17 0 -9 -18 -32 -39 -52 -61
-55 -69 -61 -84 -61 -8 0 -20 -7 -27 -16 -16 -18 -58 -16 -82 5 -13 10 -18 11
-18 2 0 -8 -5 -7 -16 3 -20 21 -40 20 -48 -1 -5 -12 -10 -13 -18 -5 -14 14 -2
46 14 36 8 -5 9 -2 5 10 -4 10 -7 23 -7 29 0 7 -7 4 -15 -6 -9 -13 -13 -48
-13 -119 0 -85 -3 -101 -19 -113 -17 -13 -17 -14 0 -15 22 0 23 -42 1 -60 -13
-11 -16 -10 -21 8 -3 12 -10 19 -15 16 -5 -3 -7 -12 -4 -19 2 -7 -8 -30 -24
-52 -16 -21 -30 -44 -30 -51 0 -7 -4 -20 -9 -30 -5 -9 -15 -32 -22 -50 -15
-41 -48 -84 -59 -77 -5 3 -20 -19 -34 -49 -17 -35 -34 -57 -48 -61 -13 -4 -33
-16 -45 -27 -22 -21 -43 -17 -43 8 0 8 10 14 25 14 14 0 25 4 25 10 0 5 -7 7
-15 4 -8 -4 -15 -1 -15 5 0 6 6 11 13 11 8 0 7 4 -3 11 -12 8 -10 9 8 4 27 -8
53 10 45 31 -3 7 1 16 9 19 10 4 13 15 10 31 -5 27 10 133 35 254 9 41 17 82
18 90 0 9 3 20 7 25 10 19 49 157 45 161 -2 3 -14 -26 -27 -63 -12 -38 -26
-70 -30 -73 -10 -7 -50 -126 -50 -151 0 -11 -3 -18 -7 -16 -5 3 -9 -7 -10 -21
-1 -15 -7 -70 -13 -122 -6 -52 -12 -106 -13 -120 -2 -23 -7 -26 -39 -27 l-37
-2 4 47 c2 26 9 68 16 93 14 56 7 88 -16 69 -10 -8 -15 -9 -15 -2 0 6 8 15 18
21 16 9 16 11 -2 24 -15 11 -17 17 -7 35 16 30 14 34 -10 20 -16 -10 -19 -20
-15 -47 4 -26 1 -34 -13 -38 -10 -3 -24 -14 -30 -26 -9 -19 -10 -16 -9 22 2
28 -2 46 -10 49 -12 4 -17 -15 -13 -55 1 -12 -9 -33 -23 -46 -24 -24 -24 -24
-31 -3 -13 38 -15 105 -5 111 5 3 10 11 10 18 0 30 -31 -37 -34 -75 -2 -24 -7
-87 -11 -140 -6 -76 -11 -96 -20 -88 -9 8 -14 4 -19 -15 -7 -28 -30 -33 -44
-10 -5 10 -9 -50 -10 -149 -1 -130 2 -167 13 -176 7 -6 16 -24 20 -39 6 -26
65 -83 65 -62 0 5 -8 16 -19 23 -19 13 -21 18 -21 43 0 8 -12 26 -26 40 -30
30 -25 55 10 55 16 0 27 7 31 20 3 11 11 20 16 20 6 0 3 -10 -5 -22 -9 -12
-16 -34 -16 -48 0 -32 54 -92 105 -115 20 -10 48 -31 63 -47 48 -52 101 -75
212 -93 58 -9 119 -22 135 -28 55 -19 205 -136 205 -160 0 -4 12 -19 27 -32
24 -20 28 -32 30 -82 2 -55 10 -100 30 -168 7 -23 28 -42 87 -77 43 -27 82
-48 87 -48 5 0 9 -4 9 -10 0 -5 -8 -10 -17 -10 -15 0 -16 -2 -3 -10 8 -5 24
-7 36 -4 12 3 74 -2 139 -11 104 -14 160 -14 232 1 17 3 21 1 17 -11 -4 -8
-12 -15 -19 -15 -8 0 -16 -4 -19 -9 -11 -17 34 1 47 19 7 9 36 22 67 28 30 6
86 18 123 27 38 8 92 17 120 18 44 3 57 -1 90 -26 43 -34 44 -40 15 -83 -16
-23 -33 -35 -58 -39 -22 -4 -48 -19 -70 -42 -22 -23 -27 -32 -14 -25 11 6 30
8 42 5 14 -3 24 0 28 10 3 9 13 13 25 10 10 -3 16 -9 13 -14 -3 -5 -9 -7 -14
-4 -5 3 -19 -2 -30 -12 -63 -52 -74 -63 -57 -57 37 14 14 -13 -30 -35 -41 -20
-67 -24 -170 -28 -82 -2 -123 0 -123 7 0 6 8 13 18 16 48 16 122 59 122 71 0
14 -10 16 -34 7 -9 -3 -14 -10 -11 -14 3 -5 -3 -6 -14 -3 -13 3 -17 11 -14 24
3 11 0 19 -6 19 -7 0 -10 -4 -7 -9 9 -15 -5 -41 -21 -41 -13 0 -13 3 -3 15 15
18 -1 20 -18 3 -9 -9 -13 -7 -18 5 -8 23 -24 21 -24 -2 0 -11 -4 -23 -10 -26
-5 -3 -10 -11 -10 -16 0 -6 5 -7 10 -4 6 3 10 2 10 -3 0 -5 -13 -12 -30 -14
-16 -3 -30 -1 -30 2 0 4 -18 14 -40 23 -40 15 -41 15 -35 -4 5 -14 3 -17 -9
-13 -10 4 -16 1 -16 -7 0 -10 -2 -11 -8 -2 -5 8 -21 9 -57 2 -28 -6 -63 -7
-79 -4 -24 4 -27 3 -16 -10 7 -8 21 -15 31 -15 11 0 19 -4 19 -9 0 -8 29 -19
72 -27 28 -6 10 25 -19 32 -16 4 -21 10 -15 16 12 12 57 7 57 -7 0 -5 4 -15 8
-22 4 -6 0 -19 -9 -27 -11 -12 -12 -16 -2 -16 7 0 18 -11 24 -24 10 -22 9 -25
-14 -29 -22 -4 -73 16 -107 43 -19 15 -50 16 -76 4 -29 -14 -243 -23 -255 -11
-5 4 -2 12 5 16 8 5 9 11 4 14 -6 4 -15 -5 -22 -19 l-12 -26 -29 31 c-17 17
-34 31 -39 31 -5 0 -16 12 -26 26 -14 22 -15 28 -4 36 11 8 10 9 -3 4 -10 -3
-18 -1 -18 4 0 5 -9 11 -20 15 -28 9 -126 102 -117 111 4 4 24 0 44 -10 20
-10 55 -20 78 -22 22 -3 90 -15 150 -28 110 -22 213 -26 288 -11 30 6 36 5 32
-6 -4 -11 6 -13 50 -11 30 2 55 8 55 13 0 8 -43 14 -83 11 -10 -1 -16 2 -13 7
4 5 -4 7 -16 4 -13 -3 -20 -2 -16 2 4 4 27 9 50 11 70 6 114 15 186 41 37 13
46 13 65 1 13 -8 34 -12 52 -8 21 4 26 8 17 14 -7 4 -16 5 -19 2 -3 -3 -12 -1
-20 6 -12 9 -9 14 14 25 28 13 28 13 -12 8 -26 -3 -62 3 -102 16 -35 11 -71
19 -80 17 -10 -2 16 -13 57 -24 l75 -21 -35 -15 c-19 -9 -57 -19 -84 -22 -27
-3 -54 -10 -60 -15 -11 -9 -50 -7 -100 5 -17 4 -58 -1 -103 -12 -58 -14 -70
-20 -52 -25 19 -4 14 -7 -24 -13 -36 -5 -65 -2 -120 14 -39 12 -90 26 -112 32
-22 6 -55 17 -73 25 -18 8 -40 12 -47 9 -8 -3 -17 -1 -20 4 -4 6 -20 10 -37
10 -17 0 -29 2 -26 5 3 3 33 6 67 6 33 1 61 5 61 9 0 5 -23 13 -50 19 -63 14
-118 41 -149 75 -14 14 -29 26 -34 26 -19 0 37 -52 87 -80 37 -21 44 -29 30
-32 -39 -9 -192 57 -252 106 -16 15 -35 26 -41 26 -6 0 -11 4 -11 8 0 5 -11
15 -25 22 -14 7 -25 20 -25 29 0 14 -2 14 -10 1 -7 -12 -12 -12 -22 -2 -10 10
-10 15 2 23 12 8 11 9 -5 5 -16 -5 -20 -1 -21 20 -1 14 -9 33 -19 44 -38 42
33 28 132 -25 44 -24 46 -24 21 -3 -15 13 -37 31 -50 41 l-23 18 25 -15 c13
-9 31 -16 40 -16 8 0 37 -23 65 -50 27 -28 54 -50 59 -50 6 0 -22 32 -61 70
-40 39 -78 69 -85 68 -7 -2 -12 4 -10 11 4 20 -18 61 -33 61 -7 0 -18 7 -25
15 -11 13 -10 14 4 9 11 -4 16 -1 16 10 0 9 -7 16 -15 16 -19 0 -8 28 13 33
15 3 14 5 -3 12 -29 13 -47 33 -39 46 3 6 -5 34 -19 62 -14 29 -34 79 -44 112
l-18 60 -3 -255 c-2 -253 2 -292 32 -303 6 -2 1 -2 -11 0 l-23 3 0 -635 0
-635 1750 0 c963 0 1750 3 1750 6 0 3 -5 14 -11 25 -14 27 3 47 39 45 39 -2
52 -13 52 -47 0 -23 4 -29 20 -29 18 0 19 3 10 21 -9 16 -7 27 7 51 10 17 24
33 30 35 17 6 46 -55 40 -83 l-4 -24 218 0 219 0 0 544 c0 426 -3 546 -12 550
-10 5 -10 7 0 12 12 6 17 70 6 98 -12 30 -25 16 -18 -19 4 -23 2 -35 -5 -35
-6 0 -11 5 -11 10 0 6 -5 10 -11 10 -6 0 -8 -7 -5 -16 3 -8 2 -12 -4 -9 -6 3
-10 1 -10 -5 0 -6 -4 -8 -10 -5 -5 3 -10 20 -10 36 0 17 -7 44 -16 61 -15 28
-15 32 0 40 17 10 22 43 7 53 -5 3 -12 -4 -16 -15 -3 -11 -10 -20 -15 -20 -14
0 -40 55 -40 82 0 13 -9 31 -19 40 -17 14 -20 15 -25 1 -3 -8 -4 -19 -1 -23 3
-5 1 -11 -5 -15 -6 -4 -8 -11 -4 -16 3 -5 3 -28 -1 -49 -9 -55 -35 -54 -35 0
0 22 -4 40 -10 40 -5 0 -10 8 -9 18 0 10 3 12 6 5 6 -18 23 -16 23 1 0 8 -7
27 -15 43 -21 41 -39 88 -69 186 -17 55 -31 85 -38 81 -7 -4 -8 -2 -4 5 17 26
-82 179 -102 159 -8 -8 -15 -3 -23 16 l-12 26 -14 -37 c-16 -47 -16 -43 0 -43
8 0 20 -12 27 -26 13 -24 50 -52 50 -38 0 3 -9 19 -21 35 -21 30 -18 39 6 15
8 -7 17 -25 21 -40 3 -14 13 -30 21 -34 8 -5 15 -18 16 -30 0 -12 3 -19 6 -16
5 4 31 -64 31 -81 -1 -5 -10 1 -20 14 -26 31 -25 21 5 -46 18 -38 30 -53 40
-49 9 3 12 0 8 -10 -3 -7 -8 -14 -12 -14 -4 0 -5 -16 -3 -35 2 -19 7 -34 11
-33 19 2 27 -5 37 -29 18 -42 24 -92 14 -98 -6 -3 -10 2 -10 12 0 11 -7 28
-15 39 -14 18 -15 17 -9 -11 4 -16 13 -43 21 -58 8 -16 12 -36 10 -45 -3 -13
-7 -9 -16 13 -8 17 -24 53 -37 82 -13 28 -24 59 -24 67 0 9 -4 16 -10 16 -5 0
-10 -4 -10 -10 0 -5 -9 -2 -19 7 -11 9 -18 20 -15 24 2 5 -5 13 -16 19 -12 7
-19 18 -16 25 3 8 -1 37 -8 65 -8 30 -9 50 -3 50 5 0 2 11 -7 24 -8 13 -17 40
-19 60 -3 27 -50 114 -94 175 -2 2 -5 2 -8 -1 -6 -6 61 -137 77 -148 4 -3 10
-23 13 -45 2 -21 9 -43 14 -48 5 -5 7 -16 4 -24 -6 -16 -78 121 -103 196 -7
24 -20 45 -27 48 -16 6 -53 75 -53 98 0 8 -5 15 -11 15 -6 0 -8 7 -5 16 3 8 2
13 -3 10 -10 -7 -42 55 -44 84 -1 11 -5 20 -10 20 -11 0 1 80 14 96 5 6 7 19
3 28 -3 9 -1 16 5 16 6 0 12 -6 13 -12 4 -36 3 -44 -7 -51 -6 -5 -3 -7 8 -3 9
3 17 1 17 -4 0 -5 -8 -14 -17 -19 -10 -6 -16 -11 -13 -11 3 -1 32 -3 65 -4 33
-2 69 -7 79 -12 16 -6 18 -4 13 9 -11 28 8 19 24 -10 8 -16 20 -32 26 -36 7
-4 13 -14 13 -21 0 -7 11 -30 25 -51 17 -24 24 -44 19 -57 -4 -13 -2 -18 4
-14 6 4 20 -4 31 -16 18 -18 21 -19 21 -5 0 9 5 17 10 17 6 0 10 -9 10 -21 0
-11 4 -18 9 -15 5 3 9 0 8 -7 -1 -35 4 -57 14 -57 5 0 7 5 3 12 -5 7 -2 9 9 5
12 -5 11 4 -9 43 -28 56 -28 57 -9 76 18 18 19 11 4 -18 -10 -18 -9 -20 5 -15
11 4 19 1 22 -11 11 -33 54 -127 54 -117 0 6 -16 57 -35 114 -19 58 -35 111
-35 118 0 25 -33 81 -55 93 -12 7 -39 34 -60 61 -20 27 -39 49 -41 49 -12 0 0
-24 28 -55 25 -30 29 -38 17 -45 -11 -7 -11 -12 -1 -22 9 -9 12 -9 12 0 0 7 7
12 17 12 14 0 14 -2 -2 -20 -17 -18 -17 -20 -2 -14 13 5 16 2 11 -10 -4 -10
-1 -16 9 -16 8 0 22 -15 31 -34 18 -39 20 -56 6 -56 -5 0 -10 6 -10 13 0 7
-25 40 -56 72 -51 54 -55 56 -35 22 11 -21 21 -46 21 -55 -1 -23 -42 28 -66
80 -9 21 -21 38 -26 38 -4 0 -8 9 -8 21 0 12 4 18 11 13 6 -3 15 0 20 7 12 19
11 32 -1 24 -6 -4 -7 2 -1 17 4 13 5 32 1 43 -4 11 -5 25 -3 31 2 7 0 15 -6
19 -17 10 -25 -23 -13 -51 9 -19 9 -24 -2 -24 -8 0 -16 7 -20 15 -3 8 -11 15
-17 15 -7 0 -5 -10 6 -26 16 -24 16 -27 -1 -45 -10 -11 -24 -17 -32 -14 -12 4
-11 1 2 -19 9 -14 12 -28 7 -31 -5 -3 -12 4 -16 15 -3 11 -10 20 -15 20 -4 0
-11 12 -14 26 -7 25 -8 25 -21 8 -7 -10 -11 -22 -9 -26 3 -5 0 -8 -6 -8 -7 0
-10 6 -7 13 2 6 -4 23 -14 36 -20 25 -25 80 -10 97 5 5 18 36 29 69 27 79 80
176 106 194 12 8 35 30 52 48 17 18 35 33 41 33 6 0 13 7 17 15 3 8 9 15 13
14 39 -6 84 62 134 202 47 132 48 134 98 182 38 37 61 96 61 158 0 35 -33 79
-75 99 -81 38 -251 47 -345 17 -19 -6 -89 -12 -155 -13 -66 -1 -127 -2 -135
-4 -8 -1 -40 1 -70 4 -52 4 -75 9 -175 35 -118 31 -261 57 -365 65 -19 2 -71
10 -115 19 -44 9 -87 16 -95 15 -8 -1 -41 11 -73 26 -34 17 -75 28 -97 28 -32
-1 -42 5 -69 39 -42 52 -98 79 -158 78 l-48 -2 56 -7z m302 -141 c9 -6 15 -14
12 -19 -9 -14 9 -19 77 -24 65 -4 148 -22 148 -32 0 -3 -17 -5 -37 -3 -21 1
-46 -2 -56 -6 -17 -7 -15 -11 13 -36 17 -16 36 -29 41 -29 6 0 7 -5 4 -10 -4
-6 12 -19 35 -29 34 -15 47 -17 72 -7 l30 11 -31 13 c-17 6 -31 14 -31 15 0 4
118 9 213 9 26 1 47 5 47 9 0 5 12 4 27 -2 19 -7 29 -7 31 0 2 6 12 6 29 -2
l26 -12 -24 -6 c-13 -4 -41 -7 -61 -8 -27 -1 -38 -6 -38 -16 0 -24 38 -55 66
-55 15 0 55 -5 90 -12 54 -10 66 -9 88 5 16 11 23 23 20 32 -4 8 -9 13 -13 11
-9 -6 -31 21 -23 30 4 4 1 4 -5 0 -7 -4 -21 -2 -30 3 -15 8 -11 10 20 11 21 0
36 -3 34 -7 -3 -5 21 -8 54 -9 39 0 65 -6 76 -17 29 -25 111 -40 145 -26 36
15 30 23 -7 9 -42 -16 -134 14 -111 37 8 9 151 7 165 -2 9 -5 9 -10 0 -21 -14
-18 -11 -17 42 1 24 9 46 21 51 27 4 8 36 13 79 14 72 2 118 -8 130 -27 3 -6
21 -12 39 -14 32 -4 66 -35 50 -45 -4 -3 -9 -13 -11 -23 -4 -17 -6 -17 -27 3
-20 19 -24 19 -37 6 -10 -9 -11 -17 -5 -21 12 -7 14 -35 3 -35 -5 0 -18 15
-30 33 -19 27 -29 32 -68 35 -31 2 -45 -1 -40 -8 3 -5 14 -10 24 -10 18 0 57
-37 86 -83 15 -24 16 -30 5 -37 -20 -12 -44 8 -30 25 12 15 -8 26 -57 30 -24
3 -34 -1 -38 -15 -3 -10 -19 -20 -39 -24 -29 -6 -35 -12 -41 -42 -5 -27 -10
-34 -22 -29 -9 3 -20 0 -24 -7 -6 -10 -16 -4 -39 20 -28 31 -41 60 -21 48 5
-4 7 2 4 12 -4 18 -48 34 -125 47 -21 3 -38 10 -38 15 0 5 6 8 13 6 49 -16 66
-16 60 -1 -3 10 -12 14 -21 10 -9 -3 -13 -3 -9 1 4 4 -1 13 -11 20 -22 17 -32
17 -32 2 0 -16 -83 -22 -108 -9 -21 11 -66 -5 -56 -20 4 -8 -3 -9 -25 -4 -21
4 -31 3 -31 -5 0 -8 -9 -7 -26 5 -14 9 -35 15 -45 12 -13 -4 -19 0 -19 11 -1
15 -2 15 -14 0 -7 -10 -18 -18 -25 -18 -16 0 -13 -20 4 -26 9 -4 13 -13 10
-24 -4 -14 2 -19 34 -24 22 -3 45 -14 51 -24 9 -15 11 -16 22 -1 7 9 20 16 28
16 8 1 32 4 54 8 28 5 36 3 31 -5 -4 -6 -16 -10 -26 -7 -18 5 -20 2 -23 -35
-1 -7 6 -12 14 -10 11 3 12 1 4 -8 -16 -16 -55 -3 -47 16 3 9 -2 14 -16 14
-23 0 -29 -16 -8 -23 9 -3 9 -7 -1 -19 -9 -11 -10 -18 -2 -23 15 -9 12 -25 -5
-25 -17 0 -57 -20 -67 -34 -7 -11 -122 -16 -186 -8 -34 4 -40 7 -31 18 6 8 20
14 30 14 11 0 19 5 19 10 0 6 -4 10 -10 10 -5 0 -10 6 -10 13 0 8 -14 11 -47
8 -47 -3 -47 -4 -26 -21 26 -21 13 -40 -26 -40 -13 0 -33 -8 -43 -17 -14 -13
-21 -14 -30 -5 -17 17 -74 15 -92 -3 -12 -13 -20 -14 -37 -5 -23 13 -62 4 -41
-9 10 -6 10 -10 -1 -20 -17 -14 -50 -3 -43 14 3 8 -9 15 -36 19 -28 5 -42 12
-45 26 -8 29 -19 25 -32 -10 -5 -17 -17 -30 -26 -30 -9 0 -13 -4 -10 -10 3 -5
-1 -10 -9 -10 -9 0 -16 5 -16 10 0 6 -4 10 -10 10 -5 0 -10 -7 -10 -15 0 -15
-16 -20 -57 -16 -12 1 -24 -3 -28 -9 -5 -8 -11 -7 -21 1 -11 9 -14 8 -14 -6 0
-13 -5 -15 -17 -10 -10 4 -29 9 -43 10 -14 1 -17 0 -7 -2 9 -2 17 -9 17 -14 0
-8 -6 -10 -42 -13 -7 -1 -14 5 -14 12 -3 25 -6 26 -14 5 -11 -27 -60 -32 -83
-8 -13 12 -17 12 -31 -4 -21 -23 -58 -17 -48 7 5 14 3 15 -10 4 -8 -7 -22 -10
-31 -6 -8 3 -18 1 -22 -5 -3 -6 -15 -11 -26 -11 -10 0 -19 -4 -19 -10 0 -26
-88 -47 -97 -22 -5 12 -9 10 -23 -8 -14 -18 -23 -21 -45 -16 l-27 7 39 28 c51
37 83 54 90 47 3 -3 0 -13 -7 -21 -10 -12 -10 -19 -2 -27 9 -9 12 -9 12 1 0 7
5 9 12 5 7 -5 9 0 6 14 -5 17 0 21 28 26 18 4 36 11 40 17 4 7 -6 8 -29 4 -44
-8 -63 1 -46 21 9 11 7 14 -9 14 -11 0 -27 7 -36 15 -8 8 -24 15 -34 15 -18 0
-19 3 -9 30 11 30 32 45 48 34 5 -3 6 -10 3 -16 -5 -8 3 -9 24 -5 18 4 32 2
32 -3 0 -5 7 -7 15 -4 8 4 15 15 15 26 0 17 3 18 14 9 10 -8 16 -9 21 -1 3 5
12 10 18 9 7 0 2 -7 -10 -16 -13 -8 -23 -20 -23 -26 0 -21 -33 -35 -64 -26
-42 12 -58 11 -54 -3 2 -6 24 -13 48 -15 25 -3 47 -9 51 -14 7 -12 46 -4 106
22 31 13 41 22 37 34 -3 8 -10 13 -14 10 -5 -3 -11 -1 -14 4 -8 12 11 24 42
29 15 2 21 -1 17 -8 -3 -5 1 -10 9 -10 9 0 16 -4 16 -10 0 -16 37 -11 44 6 3
8 10 13 16 9 13 -8 50 13 50 28 0 8 -3 8 -9 -2 -6 -10 -13 -11 -27 -3 -18 10
-17 11 6 20 70 26 88 24 58 -7 -11 -10 -10 -11 3 -6 10 4 20 2 24 -4 3 -6 -2
-11 -12 -12 -16 0 -16 -1 2 -8 13 -6 37 -2 67 9 27 10 45 14 42 9 -3 -6 6 -7
23 -3 38 9 40 12 14 22 -21 7 -20 8 9 25 16 10 30 22 30 28 0 16 57 10 64 -7
3 -8 10 -12 16 -9 6 4 7 12 4 18 -5 8 -3 8 7 0 7 -7 21 -13 31 -13 10 0 18 -7
18 -15 0 -25 53 -43 165 -55 99 -11 110 -11 121 5 19 25 -2 52 -45 58 -20 3
-47 8 -61 11 l-25 7 25 -15 c14 -8 37 -15 51 -16 32 0 57 -26 41 -42 -7 -7
-24 -8 -49 -3 -21 5 -49 9 -63 10 -42 3 -94 15 -117 27 -20 10 -20 12 -6 27
15 15 15 16 0 19 -9 2 -17 10 -17 18 0 8 -7 14 -15 14 -8 0 -15 5 -15 10 0 6
7 10 16 10 8 0 12 5 9 11 -4 6 -14 8 -22 5 -15 -6 -53 10 -64 27 -4 6 -9 5
-13 -1 -3 -6 2 -13 13 -17 10 -3 22 -13 25 -23 3 -9 9 -24 12 -32 4 -8 -1 -6
-10 5 -14 18 -15 19 -16 2 0 -10 -5 -15 -10 -12 -8 5 -7 11 1 21 14 17 4 30
-26 36 -12 2 -19 10 -17 20 1 9 -3 20 -9 24 -8 5 -10 2 -6 -9 3 -9 -1 -18 -11
-22 -13 -5 -14 -8 -3 -14 7 -5 10 -14 7 -20 -11 -18 -26 -13 -26 8 0 11 -5 23
-12 27 -8 5 -9 2 -5 -9 7 -20 3 -21 -23 -7 -17 9 -19 8 -13 -7 4 -10 11 -21
17 -25 6 -4 7 -10 3 -14 -17 -17 -73 65 -63 93 3 8 14 13 23 11 10 -1 24 1 30
5 15 9 53 -9 53 -25 0 -6 2 -9 5 -6 11 10 -8 40 -31 49 -13 4 -24 13 -24 19 0
19 30 10 80 -25 50 -35 96 -47 87 -22 -2 6 -12 11 -23 10 -10 -1 -33 12 -51
28 -19 16 -45 29 -58 29 -14 0 -25 5 -25 10 0 6 9 10 19 10 26 0 36 17 21 35
-9 11 -7 12 12 8 18 -4 20 -2 8 6 -16 11 -15 12 20 29 23 12 23 12 3 8 -20 -3
-23 0 -23 24 0 52 9 62 49 55 19 -4 44 -11 54 -16z m-574 -50 c-12 -8 -11 -11
1 -19 13 -9 13 -10 0 -10 -8 0 -26 -9 -40 -20 -24 -19 -24 -19 -2 -13 13 3 22
1 22 -6 0 -6 -3 -11 -7 -11 -5 0 -16 -7 -26 -14 -13 -11 -15 -19 -8 -37 6 -16
10 -18 10 -8 1 19 27 33 43 23 13 -9 -21 -44 -44 -44 -10 0 -18 5 -18 11 0 6
-9 8 -20 4 -17 -5 -19 -2 -16 24 4 37 51 101 74 101 13 0 14 2 3 9 -11 7 -10
11 5 19 22 12 43 4 23 -9z m461 -18 c0 -6 -4 -13 -10 -16 -5 -3 -10 1 -10 9 0
9 5 16 10 16 6 0 10 -4 10 -9z m508 -11 c52 -6 101 -14 109 -19 23 -12 -37
-31 -122 -38 -60 -5 -74 -3 -94 14 -16 13 -22 26 -18 36 7 20 4 20 125 7z
m-181 -36 c4 -10 13 -14 26 -10 15 4 17 2 9 -6 -9 -9 -18 -8 -37 2 -25 14 -33
30 -15 30 6 0 13 -7 17 -16z m483 -33 c0 -5 -9 -7 -20 -4 -11 3 -20 7 -20 9 0
2 9 4 20 4 11 0 20 -4 20 -9z m834 -53 c-3 -5 1 -19 9 -31 21 -32 25 -71 10
-85 -10 -10 -13 -10 -13 1 0 8 -9 26 -21 41 -17 22 -19 29 -9 41 10 13 9 19
-5 35 -23 26 -10 47 16 24 10 -9 16 -21 13 -26z m-791 0 c34 -24 34 -34 2 -42
-22 -6 -139 16 -173 33 -27 12 -11 26 35 32 62 8 101 1 136 -23z m-1311 -20
c-7 -7 -12 -8 -12 -2 0 14 12 26 19 19 2 -3 -1 -11 -7 -17z m2148 -4 c0 -22
-2 -25 -15 -14 -8 7 -15 19 -15 26 0 8 7 14 15 14 10 0 15 -10 15 -26z m-2110
-13 c0 -12 -20 -25 -27 -18 -7 7 6 27 18 27 5 0 9 -4 9 -9z m-95 -21 c-3 -5
-10 -10 -16 -10 -5 0 -9 5 -9 10 0 6 7 10 16 10 8 0 12 -4 9 -10z m36 -27 c-9
-16 -10 -14 -11 12 0 21 3 26 11 18 8 -8 8 -16 0 -30z m359 8 c5 -11 10 -30
10 -43 -1 -22 -1 -22 -14 -5 -13 17 -15 17 -40 -6 -29 -27 -34 -42 -10 -33 8
3 12 2 9 -4 -8 -13 -48 -7 -53 8 -2 6 -10 8 -18 5 -9 -3 -14 1 -14 12 0 9 4
14 9 11 5 -4 7 3 4 14 -6 23 9 26 27 5 16 -19 33 -9 27 16 -6 21 8 35 18 19
10 -16 28 -12 21 5 -8 22 12 18 24 -4z m-910 -26 c21 -18 60 -29 95 -26 38 3
88 -35 65 -49 -10 -6 -17 -4 -23 5 -4 8 -13 15 -18 15 -6 0 -1 -13 11 -30 34
-48 7 -69 -33 -26 -23 24 -72 36 -94 23 -6 -4 -14 -3 -18 3 -3 5 -14 10 -23
10 -31 -1 15 -28 60 -35 21 -4 42 -13 45 -21 3 -8 13 -14 22 -13 22 4 61 -10
61 -22 0 -5 -6 -9 -12 -9 -9 0 -8 -3 2 -10 12 -7 12 -10 -4 -16 -12 -5 -23 -2
-31 9 -9 12 -14 14 -23 5 -9 -9 -12 -9 -12 2 0 10 -12 16 -38 17 -32 1 -35 0
-19 -11 9 -7 17 -21 17 -32 0 -14 -3 -15 -12 -6 -19 19 -30 14 -24 -10 3 -13
3 -17 0 -10 -3 6 -14 12 -24 12 -10 0 -21 4 -25 10 -3 5 -12 7 -21 3 -11 -4
-12 -8 -3 -19 7 -8 9 -17 5 -21 -3 -4 -12 1 -19 11 -7 10 -25 19 -40 19 -30 2
-35 12 -12 21 8 3 15 15 15 26 0 23 7 25 29 7 22 -19 80 -41 88 -34 12 13 -24
35 -49 30 -33 -6 -50 21 -44 71 4 26 2 34 -9 30 -19 -8 -27 12 -10 26 7 6 11
18 8 26 -13 34 5 47 55 39 26 -4 54 -13 62 -20z m608 8 c-9 -8 -21 -12 -27 -8
-16 9 -6 20 20 22 20 2 21 1 7 -14z m2054 -18 c4 -16 5 -31 3 -34 -8 -7 -34
32 -35 52 0 28 23 15 32 -18z m-2605 9 c-3 -3 -12 -4 -19 -1 -8 3 -5 6 6 6 11
1 17 -2 13 -5z m167 0 c25 -10 19 -22 -9 -16 -14 2 -22 8 -19 13 6 11 8 11 28
3z m2374 -17 c2 -10 -3 -17 -11 -17 -9 0 -17 -6 -20 -12 -2 -7 -8 -10 -12 -6
-12 11 13 60 28 55 6 -2 13 -11 15 -20z m-598 8 c0 -2 -9 -9 -20 -15 -16 -9
-20 -8 -20 5 0 8 9 15 20 15 11 0 20 -2 20 -5z m-1242 -33 c4 -25 -13 -30 -22
-6 -9 25 -7 36 7 32 6 -3 13 -14 15 -26z m1180 17 c-2 -6 -7 -10 -11 -10 -4 1
-19 2 -34 2 l-28 1 30 8 c44 11 47 11 43 -1z m229 -16 c38 -25 18 -43 -51 -43
-36 0 -82 -8 -112 -20 -44 -16 -54 -17 -70 -6 -17 13 -16 15 12 29 16 8 40 27
53 41 22 24 28 25 85 19 34 -3 71 -13 83 -20z m463 18 c0 -6 -4 -13 -10 -16
-5 -3 -10 1 -10 9 0 9 5 16 10 16 6 0 10 -4 10 -9z m-2176 -22 c-3 -5 -10 -7
-15 -3 -5 3 -7 10 -3 15 3 5 10 7 15 3 5 -3 7 -10 3 -15z m2016 -3 c0 -20 -12
-26 -38 -20 -12 4 -19 11 -15 20 7 19 53 18 53 0z m-1762 -28 c-7 -19 -38 -22
-38 -4 0 10 9 16 21 16 12 0 19 -5 17 -12z m86 -1 c4 4 5 1 1 -7 -7 -20 -65
-24 -65 -5 0 16 30 25 46 13 6 -4 14 -5 18 -1z m-184 -17 c0 -5 -4 -10 -10
-10 -5 0 -10 5 -10 10 0 6 5 10 10 10 6 0 10 -4 10 -10z m1780 1 c0 -5 -7 -12
-16 -15 -22 -9 -24 -8 -24 9 0 8 9 15 20 15 11 0 20 -4 20 -9z m-1934 -38
c-11 -11 -19 6 -11 24 8 17 8 17 12 0 3 -10 2 -21 -1 -24z m1748 -13 c6 0 17
5 24 12 14 14 16 -1 2 -22 -8 -13 -13 -13 -31 -2 -18 11 -23 11 -33 -4 -11
-14 -16 -15 -36 -4 -20 11 -25 10 -35 -4 -16 -21 -55 -21 -55 -1 0 9 7 18 15
21 14 6 13 8 -2 19 -15 11 -13 13 17 20 29 6 37 4 48 -14 18 -26 32 -27 25 -2
-4 16 -1 19 16 14 13 -3 22 0 22 8 1 8 4 2 6 -13 2 -16 10 -28 17 -28z m-1486
17 c15 -10 6 -27 -14 -27 -18 0 -46 25 -37 34 7 7 34 3 51 -7z m1712 -8 c0 -5
-7 -9 -15 -9 -7 0 -18 -8 -24 -17 -8 -15 -11 -15 -26 -3 -15 13 -15 14 4 25
27 14 61 17 61 4z m77 5 c-3 -3 -12 -4 -19 -1 -8 3 -5 6 6 6 11 1 17 -2 13 -5z
m-503 -10 c18 -7 22 -34 5 -34 -17 0 -49 20 -49 30 0 11 21 13 44 4z m-1749
-45 l-8 -24 -8 24 c-10 27 -2 48 13 33 6 -6 7 -20 3 -33z m1669 33 c3 -4 -8
-13 -25 -19 -17 -7 -31 -7 -35 -2 -3 5 4 9 15 9 12 0 21 5 21 10 0 12 17 13
24 2z m-1579 -22 c-3 -5 -10 -10 -16 -10 -5 0 -9 5 -9 10 0 6 7 10 16 10 8 0
12 -4 9 -10z m230 -29 c-6 -5 -20 -12 -32 -16 -18 -5 -22 -3 -17 9 3 9 18 16
32 16 16 0 22 -4 17 -9z m-470 -22 c-4 -5 1 -9 9 -9 9 0 16 -5 16 -10 0 -6
-11 -8 -27 -4 -37 9 -38 11 -23 29 13 15 35 11 25 -6z m1855 -15 c13 -34 13
-47 -2 -41 -7 2 -13 15 -13 28 0 17 -5 24 -17 23 -10 -1 -15 2 -12 7 11 18 35
9 44 -17z m128 -2 c13 -20 12 -22 -10 -33 -20 -9 -31 -7 -59 10 -25 15 -29 21
-15 21 11 0 28 -8 38 -17 17 -15 20 -15 28 -3 6 11 3 18 -11 25 -11 6 -16 14
-12 18 10 11 25 4 41 -21z m59 -2 c-1 -11 -7 -20 -14 -20 -17 0 -17 27 0 33 6
3 13 6 14 6 1 1 1 -8 0 -19z m83 5 c-7 -8 -19 -15 -27 -15 -13 0 -13 3 -3 15
7 8 19 15 27 15 13 0 13 -3 3 -15z m-2332 -13 c6 -18 -15 -14 -22 4 -4 10 -1
14 6 12 6 -2 14 -10 16 -16z m1625 -3 c-4 -14 -9 -17 -16 -10 -19 19 -37 12
-37 -14 0 -14 -4 -25 -10 -25 -11 0 -14 53 -3 63 3 4 21 7 39 7 28 0 31 -3 27
-21z m382 4 c8 4 17 2 20 -3 4 -6 -9 -10 -29 -10 -34 0 -52 11 -39 24 3 3 12
1 19 -5 8 -6 20 -9 29 -6z m-765 3 c0 -8 -59 -34 -64 -28 -11 10 17 32 40 32
13 0 24 -2 24 -4z m230 -6 c0 -5 -9 -10 -19 -10 -11 0 -23 5 -26 10 -4 6 5 10
19 10 14 0 26 -4 26 -10z m-1502 -28 c2 -7 -3 -12 -12 -12 -9 0 -16 7 -16 16
0 17 22 14 28 -4z m155 -2 c3 -13 0 -20 -8 -20 -8 0 -18 -8 -24 -17 -5 -10
-13 -14 -18 -9 -4 5 -2 11 5 13 6 3 12 16 12 29 0 29 25 32 33 4z m82 11 c10
-17 -12 -21 -25 -6 -10 12 -10 15 3 15 9 0 18 -4 22 -9z m1305 -1 c0 -5 -5
-10 -11 -10 -5 0 -7 5 -4 10 3 6 8 10 11 10 2 0 4 -4 4 -10z m430 -13 c0 -6
10 -18 21 -28 18 -16 20 -21 9 -34 -15 -18 -42 -2 -34 20 3 7 -3 22 -15 34
-19 19 -19 20 0 18 10 -1 19 -5 19 -10z m-150 -12 c0 -9 -9 -15 -21 -15 -18 0
-19 2 -9 15 7 8 16 15 21 15 5 0 9 -7 9 -15z m230 5 c0 -5 -7 -10 -16 -10 -8
0 -12 5 -9 10 3 6 10 10 16 10 5 0 9 -4 9 -10z m110 -22 c0 -6 -9 -3 -20 7
-14 13 -20 14 -20 5 0 -7 -3 -11 -6 -7 -3 3 -3 10 1 16 8 13 45 -4 45 -21z
m-835 12 c-3 -5 -12 -10 -18 -10 -7 0 -6 4 3 10 19 12 23 12 15 0z m952 4 c-3
-3 -12 -4 -19 -1 -8 3 -5 6 6 6 11 1 17 -2 13 -5z m-2608 -27 c-4 -30 2 -38
21 -32 23 7 27 -7 7 -24 -8 -6 -20 -29 -27 -51 -14 -43 -37 -70 -28 -32 4 12
2 20 -3 16 -12 -7 -11 62 2 109 5 21 14 35 20 32 5 -4 9 -12 8 -18z m235 -21
c-24 -18 -29 -14 -14 14 9 16 15 19 23 11 8 -8 6 -15 -9 -25z m1746 19 c-7 -9
-15 -13 -17 -11 -7 7 7 26 19 26 6 0 6 -6 -2 -15z m563 8 c-7 -2 -19 -2 -25 0
-7 3 -2 5 12 5 14 0 19 -2 13 -5z m-973 -19 c0 -2 -7 -4 -15 -4 -8 0 -15 4
-15 10 0 5 7 7 15 4 8 -4 15 -8 15 -10z m685 6 c-3 -5 -12 -10 -18 -10 -7 0
-6 4 3 10 19 12 23 12 15 0z m565 3 c-1 -12 -107 -63 -130 -63 -22 0 -27 15
-7 27 15 10 108 41 125 42 6 1 12 -2 12 -6z m200 -21 c0 -15 -2 -15 -10 -2
-13 20 -13 33 0 25 6 -3 10 -14 10 -23z m-2431 15 c-19 -16 -70 -34 -75 -26
-6 10 30 27 60 28 11 1 17 -1 15 -2z m1106 -7 c3 -5 1 -10 -4 -10 -6 0 -11 5
-11 10 0 6 2 10 4 10 3 0 8 -4 11 -10z m715 0 c0 -5 -9 -10 -20 -10 -11 0 -20
5 -20 10 0 6 9 10 20 10 11 0 20 -4 20 -10z m-2303 -25 c28 19 28 19 37 -12 5
-17 3 -23 -7 -23 -9 0 -17 6 -20 13 -2 6 -8 8 -13 4 -4 -4 -3 -22 4 -39 6 -18
10 -34 7 -36 -10 -10 -35 22 -36 47 -2 23 -2 24 -6 4 -3 -15 -12 -23 -24 -23
-10 0 -19 -4 -19 -10 0 -5 -5 -10 -11 -10 -20 0 1 54 29 77 22 17 28 19 30 7
3 -13 7 -13 29 1z m86 2 c9 -23 -8 -40 -22 -23 -13 15 -7 36 9 36 4 0 10 -6
13 -13z m2653 -5 c-8 -14 -79 -59 -103 -67 -17 -5 -23 -2 -23 9 0 9 12 19 28
22 15 4 42 18 61 30 34 23 49 25 37 6z m-1536 -12 c0 -5 -4 -10 -10 -10 -5 0
-10 5 -10 10 0 6 5 10 10 10 6 0 10 -4 10 -10z m1690 -11 c0 -5 -4 -9 -10 -9
-5 0 -10 7 -10 16 0 8 5 12 10 9 6 -3 10 -10 10 -16z m-2435 1 c3 -6 -1 -13
-10 -16 -19 -8 -30 0 -20 15 8 14 22 14 30 1z m35 0 c0 -5 -5 -10 -11 -10 -5
0 -7 5 -4 10 3 6 8 10 11 10 2 0 4 -4 4 -10z m74 4 c13 -5 14 -9 5 -20 -18
-22 -5 -26 41 -14 23 6 45 9 48 5 10 -10 -14 -26 -51 -32 -41 -6 -82 22 -71
50 7 19 7 19 28 11z m2286 -3 c0 -5 -7 -11 -15 -15 -15 -5 -20 5 -8 17 9 10
23 9 23 -2z m-80 -8 c-1 -24 -93 -83 -128 -83 -7 0 -12 -5 -12 -11 0 -5 -4 -7
-10 -4 -20 13 -9 25 49 55 33 16 62 34 66 40 7 12 35 14 35 3z m-2035 -13 c-3
-5 -14 -10 -23 -10 -15 0 -15 2 -2 10 20 13 33 13 25 0z m92 -22 c-3 -8 -6 -5
-6 6 -1 11 2 17 5 13 3 -3 4 -12 1 -19z m2039 -5 c-10 -10 -19 5 -10 18 6 11
8 11 12 0 2 -7 1 -15 -2 -18z m-594 -24 c-4 -40 -32 -77 -32 -42 0 40 13 84
24 80 6 -2 10 -19 8 -38z m-442 5 c0 -8 -6 -14 -12 -14 -13 0 -42 -56 -52
-100 -8 -34 -43 -89 -62 -97 -21 -8 -44 15 -26 26 8 5 13 21 12 37 -3 44 -1
54 11 54 7 0 9 -9 6 -21 -5 -18 -3 -17 19 6 13 14 24 32 24 40 0 8 5 17 11 21
6 3 8 15 6 26 -4 15 -2 18 11 13 14 -5 15 -4 5 6 -20 20 -15 26 17 21 17 -2
30 -10 30 -18z m329 10 l32 -16 -7 -61 c-3 -34 -10 -66 -15 -71 -4 -5 -6 2 -3
15 5 20 4 21 -6 7 -6 -9 -8 -31 -5 -47 4 -24 2 -29 -10 -25 -10 4 -15 0 -15
-11 0 -13 -6 -16 -22 -12 -20 5 -21 4 -6 -6 18 -15 8 -42 -24 -65 -10 -7 -18
-20 -18 -28 0 -8 -4 -13 -8 -10 -5 3 -15 -7 -23 -22 -7 -15 -27 -41 -44 -58
-17 -17 -29 -36 -27 -42 2 -7 -1 -12 -7 -12 -6 0 -11 5 -11 12 0 6 -3 8 -7 4
-5 -4 -6 -9 -3 -11 3 -2 -4 -11 -15 -19 -20 -15 -20 -15 2 -11 13 2 25 -1 29
-6 8 -13 -26 -38 -42 -32 -7 2 -15 -1 -19 -7 -9 -14 -35 6 -35 26 0 8 -5 14
-11 14 -7 0 -9 -10 -4 -27 4 -16 8 -35 10 -44 5 -25 -54 -92 -76 -86 -10 3
-23 -1 -30 -9 -6 -8 -18 -14 -25 -14 -17 0 -18 -17 -1 -23 9 -3 9 -7 -2 -20
-7 -9 -17 -14 -22 -11 -5 3 -6 -3 -2 -12 4 -12 2 -15 -8 -12 -8 3 -13 11 -11
17 1 8 -2 9 -9 5 -9 -5 -10 -2 -6 9 3 10 2 17 -2 17 -15 0 -22 -33 -9 -42 9
-6 8 -8 -6 -6 -10 2 -21 -3 -24 -11 -3 -9 0 -11 8 -6 8 5 11 4 6 -3 -4 -6 -13
-9 -21 -5 -8 3 -15 0 -15 -6 0 -14 -65 -81 -80 -81 -6 0 -9 -4 -5 -9 8 -13
-53 -74 -66 -66 -11 8 -39 -12 -39 -28 0 -7 4 -7 12 1 24 24 29 11 8 -18 -12
-16 -26 -30 -31 -30 -5 0 -18 -8 -29 -17 -24 -21 -110 -26 -110 -7 0 7 6 14
13 17 9 3 8 8 -4 18 -9 8 -19 21 -22 29 -3 8 -5 -3 -4 -24 0 -41 -28 -76 -62
-76 -12 0 -10 5 8 19 20 15 24 27 23 63 -1 25 5 64 13 88 28 78 20 86 -32 32
-27 -27 -56 -52 -65 -55 -10 -4 -18 -12 -18 -19 0 -9 3 -9 12 0 7 7 20 12 29
12 9 0 19 10 22 22 4 12 9 19 13 16 10 -11 -6 -48 -21 -48 -8 0 -17 -9 -20
-20 -3 -11 -10 -20 -15 -20 -11 0 -21 -45 -14 -63 3 -8 15 -18 27 -22 29 -9 4
-19 -27 -11 -32 8 -44 55 -19 74 13 11 15 16 5 19 -9 3 -10 9 -3 17 5 6 6 17
2 24 -10 17 -31 -7 -34 -37 0 -11 -5 -17 -9 -15 -12 7 -10 52 2 59 6 4 9 14 8
23 -2 9 4 17 12 17 8 0 45 31 82 68 51 51 73 66 92 65 19 -2 22 -5 15 -15 -6
-6 -9 -20 -7 -30 2 -13 9 -8 26 20 12 21 22 41 22 45 0 4 13 16 30 25 28 17
29 17 40 -2 5 -11 10 -30 10 -42 0 -17 12 -5 45 45 25 38 45 73 45 78 0 24 25
-2 28 -28 5 -53 12 -74 26 -74 16 0 50 66 41 80 -3 6 -1 10 6 10 7 0 9 3 6 7
-4 3 -21 -6 -37 -22 -35 -33 -37 -29 -12 23 10 20 24 56 32 80 14 45 25 53 33
25 3 -10 3 18 0 62 -3 44 -5 90 -5 103 0 15 -5 22 -13 18 -21 -8 -65 17 -60
34 2 8 0 33 -4 55 -7 36 -8 32 -9 -30 -1 -73 -14 -125 -32 -125 -5 0 -10 3
-10 8 0 4 -16 18 -36 31 -40 28 -48 23 -59 -37 -4 -19 -16 -47 -27 -62 -22
-30 -30 -29 -95 18 -37 27 -43 27 -43 5 -1 -29 -27 -93 -46 -114 -17 -19 -18
-19 -38 -1 -30 28 -66 34 -72 14 -14 -43 -40 -92 -49 -92 -6 0 -19 6 -30 14
-31 21 -118 36 -215 36 -80 0 -91 2 -118 25 -17 14 -31 25 -33 25 -2 0 -4 -18
-4 -39 -1 -56 -22 -88 -74 -114 -24 -12 -52 -35 -60 -50 -9 -16 -24 -40 -34
-52 l-18 -24 -33 20 c-18 10 -41 28 -51 39 -22 25 -35 11 -35 -38 0 -50 -26
-53 -67 -8 -19 21 -36 36 -37 34 -2 -2 -6 -20 -9 -40 -4 -28 -2 -36 7 -32 7 3
40 -18 72 -45 67 -58 89 -65 74 -25 -6 16 -6 23 0 19 5 -3 18 0 29 7 17 10 23
9 40 -6 22 -20 28 -46 11 -46 -5 0 -6 -8 -3 -17 5 -13 2 -15 -13 -10 -12 5 -8
-2 11 -18 25 -21 28 -27 15 -35 -13 -9 -7 -14 12 -11 4 0 5 -6 2 -14 -4 -8
-14 -15 -23 -15 -9 0 1 -11 23 -25 22 -13 44 -21 49 -18 5 3 7 23 4 45 -7 49
8 56 56 28 25 -15 34 -26 30 -40 -3 -11 10 -43 31 -77 20 -32 36 -63 36 -69 0
-6 6 -11 13 -12 6 0 31 -3 54 -5 54 -7 104 7 120 32 14 22 7 55 -9 45 -5 -3
-7 -12 -4 -19 7 -19 -26 -46 -43 -35 -12 7 -11 11 2 25 20 19 22 29 5 18 -27
-16 -118 14 -118 39 0 6 -3 8 -6 5 -4 -4 -1 -13 6 -22 7 -9 10 -18 7 -21 -3
-3 -18 11 -34 30 -33 42 -65 152 -52 178 8 16 13 16 50 3 23 -8 50 -15 61 -15
32 0 78 -29 98 -63 l20 -32 0 43 c0 24 5 52 10 62 12 22 155 120 175 120 7 0
12 -15 13 -37 0 -21 7 -58 16 -83 18 -51 21 -110 6 -110 -5 0 -10 10 -10 23
-1 12 -7 35 -14 52 l-12 29 -13 -47 c-8 -26 -18 -47 -24 -47 -7 0 -7 -4 1 -12
7 -7 12 -17 12 -23 0 -5 -5 -3 -10 5 -8 12 -10 10 -9 -10 1 -14 -2 -34 -6 -44
-8 -19 -8 -19 15 -3 32 22 47 22 27 -1 -10 -10 -17 -24 -17 -30 0 -15 -76 -7
-97 10 -9 7 -22 26 -29 43 l-13 30 -1 -27 c0 -35 41 -74 87 -83 34 -6 93 12
93 29 0 4 11 17 25 28 14 11 25 26 25 34 0 8 4 13 9 10 5 -4 11 -2 13 3 1 5
26 10 53 12 28 1 58 9 67 17 9 8 23 12 30 9 8 -4 5 -8 -9 -12 -35 -11 -27 -25
10 -19 17 4 39 14 48 24 12 14 19 16 27 8 13 -13 -21 -48 -46 -48 -23 0 -123
-30 -155 -47 -15 -8 -36 -12 -46 -8 -12 3 -21 0 -24 -9 -12 -29 -70 -49 -151
-52 -53 -1 -81 -6 -87 -16 -5 -7 -13 -14 -19 -14 -5 -1 -13 -3 -17 -4 -18 -6
-39 -5 -59 2 -12 3 -26 2 -33 -5 -8 -8 -14 -6 -24 8 -16 21 -37 12 -37 -16 0
-13 -7 -20 -22 -21 -42 -2 -47 -3 -54 -11 -13 -12 -24 -8 -24 11 0 22 34 43
57 36 16 -5 16 -4 -1 10 -25 20 -32 20 -40 1 -3 -9 -18 -15 -34 -15 -22 0 -40
12 -73 49 -62 69 -64 72 -87 124 -20 46 -20 47 -2 47 14 0 18 -5 14 -17 -3
-11 0 -10 8 4 10 17 17 20 32 11 15 -9 15 -5 -5 21 -12 17 -27 31 -33 31 -6 0
-5 -5 2 -12 18 -18 15 -28 -9 -28 -13 0 -18 4 -13 13 4 6 -4 2 -16 -10 -22
-20 -22 -24 -8 -40 22 -26 29 -51 15 -57 -9 -5 -9 -7 1 -12 6 -3 12 -13 13
-22 0 -11 2 -12 6 -4 2 6 9 12 14 12 14 0 11 -28 -3 -33 -17 -6 -50 12 -43 23
3 4 -11 17 -30 29 -19 11 -35 25 -35 30 0 5 -17 22 -39 38 -33 24 -76 62 -209
182 -12 12 -39 29 -60 40 -20 10 -46 28 -56 40 -11 12 -28 21 -38 21 -11 0
-17 4 -13 9 3 5 1 12 -5 16 -6 4 -10 -5 -10 -20 0 -15 -4 -24 -10 -20 -6 3
-10 20 -10 36 0 17 -6 32 -15 35 -8 4 -15 16 -15 28 1 24 24 59 33 50 10 -11
39 26 33 41 -11 29 11 14 26 -17 8 -18 34 -49 58 -68 71 -60 120 -107 115
-112 -2 -2 14 -22 36 -44 27 -25 37 -31 30 -17 -6 12 -15 25 -21 28 -9 5 -109
142 -142 194 -9 14 -17 34 -17 43 -1 10 -12 25 -25 33 -14 9 -26 29 -28 46 -5
32 6 49 16 24 3 -8 17 -15 32 -15 18 0 28 -6 32 -22 5 -21 6 -21 13 -2 7 19 7
19 15 0 5 -13 3 -21 -4 -24 -7 -2 -12 -8 -12 -13 0 -6 4 -8 8 -5 5 3 14 -12
22 -32 7 -20 31 -61 52 -89 40 -55 64 -73 32 -25 -10 15 -24 39 -32 55 -7 15
-18 24 -24 21 -7 -4 -8 -2 -4 5 4 6 -2 36 -13 67 -12 30 -21 65 -21 77 0 16
-3 18 -9 8 -5 -8 -16 -11 -29 -7 -22 7 -36 32 -26 47 7 12 34 11 34 -1 0 -5 5
-10 11 -10 5 0 8 4 4 10 -3 5 4 19 16 31 l22 22 29 -32 c16 -17 30 -31 31 -31
1 0 3 21 4 46 3 57 12 69 57 72 26 2 38 -3 50 -19 8 -12 13 -27 9 -32 -3 -5
-8 -5 -12 0 -3 4 -24 8 -46 8 -38 0 -40 -2 -41 -30 -1 -42 13 -78 28 -69 6 4
8 3 5 -3 -3 -5 26 -43 65 -84 55 -58 67 -66 52 -39 -21 40 -21 41 -32 135 -9
84 -1 132 33 181 30 44 69 70 119 79 39 8 80 -10 134 -59 l32 -30 0 36 c0 38
31 118 53 136 13 11 76 29 132 39 23 3 27 2 15 -6 -8 -6 -23 -11 -32 -11 -9 0
-20 -10 -23 -21 -10 -29 -46 -91 -52 -86 -2 2 1 15 6 28 6 17 5 28 -5 37 -18
16 -24 15 -24 -4 0 -9 5 -12 12 -8 8 5 9 2 3 -12 -4 -10 -10 -32 -13 -48 -4
-22 -2 -27 8 -21 10 6 12 4 7 -9 -9 -22 13 -63 49 -96 15 -14 24 -20 21 -13
-4 6 -4 13 1 15 9 4 52 101 52 118 0 17 36 61 44 53 3 -3 6 4 6 16 0 14 4 20
11 15 7 -4 9 0 5 14 -8 25 24 47 56 39 11 -3 29 0 39 6 14 9 26 9 49 0 29 -11
34 -9 71 24 46 42 63 37 26 -7 -27 -31 -27 -44 1 -87 8 -13 12 -23 8 -23 -6 0
52 -97 62 -104 4 -2 7 26 7 64 0 42 4 66 10 64 7 -3 9 12 7 38 l-4 43 21 -25
c12 -14 20 -18 17 -10 -3 8 -9 22 -12 30 -3 8 -24 30 -46 48 -22 17 -36 32
-32 33 50 5 64 3 69 -9 3 -7 9 -11 14 -8 5 3 12 -1 15 -10 5 -13 9 -14 21 -4
18 15 20 34 3 24 -7 -4 -10 -4 -6 1 5 5 23 10 40 12 l33 3 -32 -20 c-47 -28
-41 -43 7 -18 l39 21 35 -24 c20 -13 36 -32 36 -41 0 -23 12 -23 32 1 17 20
14 33 -6 25 -7 -3 -21 4 -31 16 -10 11 -24 20 -32 20 -8 0 -11 5 -8 10 9 14
21 12 40 -6 12 -13 19 -14 28 -5 6 6 25 11 41 11 29 -1 30 -1 12 -15 -11 -8
-16 -18 -12 -22 4 -4 11 -1 16 6 4 8 15 11 24 8 8 -3 22 1 31 9 9 9 25 14 35
11 11 -3 20 -2 20 3 0 14 113 22 121 8 11 -18 -1 -31 -17 -17 -11 9 -14 8 -14
-4 0 -8 -7 -20 -15 -27 -11 -10 -13 -33 -9 -128 4 -65 12 -157 20 -206 7 -49
11 -92 9 -96 -3 -5 -1 -18 3 -31 8 -20 10 -18 23 24 15 53 22 51 37 -11 12
-51 3 -94 -21 -98 -17 -2 -24 20 -9 29 4 2 2 2 -5 1 -6 -2 -14 2 -17 9 -4 7
-3 -4 0 -23 3 -19 6 -46 6 -60 0 -24 0 -24 13 5 8 17 14 26 15 21 0 -5 9 -1
19 8 11 10 17 24 14 32 -3 9 0 14 8 12 8 -2 14 7 14 24 1 40 14 46 36 18 l20
-25 -12 28 c-7 15 -18 27 -26 27 -7 0 -13 4 -13 9 0 19 20 22 42 7 29 -20 44
-21 28 -1 -11 13 -10 21 3 48 36 71 97 311 94 370 0 10 -13 25 -29 35 -28 16
-37 32 -19 32 6 0 13 -4 16 -10 3 -5 15 -10 26 -10 11 0 22 -7 25 -15 4 -8 11
-15 16 -15 7 0 6 5 -1 14 -18 21 10 38 55 32 22 -2 43 -5 47 -5 8 -1 5 -6 -41
-59 -16 -19 -35 -51 -41 -73 -8 -25 -18 -39 -29 -39 -11 0 -13 -3 -5 -8 8 -5
9 -18 3 -42 -7 -30 -8 -31 -10 -10 -2 21 -3 22 -7 5 -2 -11 -8 -29 -13 -40 -5
-11 -18 -51 -28 -90 -11 -38 -21 -77 -24 -85 -3 -8 -3 -12 -1 -7 9 15 22 6 16
-10 -6 -16 -5 -16 10 -4 9 7 17 10 17 5 0 -5 7 2 16 14 15 22 15 25 -3 44 -11
13 -14 22 -7 25 7 2 10 20 7 47 -4 34 -2 44 12 50 14 5 16 2 10 -11 -4 -10
-10 -29 -13 -41 -5 -23 -4 -24 24 -9 50 26 75 61 79 108 3 47 13 127 21 172
12 61 24 21 24 -75 0 -153 -1 -141 16 -127 10 8 12 15 4 23 -19 19 -10 34 23
42 17 4 26 9 20 11 -18 6 -16 40 2 47 21 8 20 104 -1 134 -19 28 -3 30 45 6z
m681 5 c0 -12 -19 -21 -30 -14 -6 4 -8 10 -6 14 7 10 36 10 36 0z m-2790 -20
c0 -6 -4 -7 -10 -4 -5 3 -10 11 -10 16 0 6 5 7 10 4 6 -3 10 -11 10 -16z m490
1 c0 -24 -54 -36 -77 -18 -7 6 -20 7 -29 4 -10 -4 -14 -1 -12 6 7 22 118 29
118 8z m160 10 c0 -5 -4 -10 -10 -10 -5 0 -10 5 -10 10 0 6 5 10 10 10 6 0 10
-4 10 -10z m1060 0 c0 -3 -16 -18 -36 -33 -38 -31 -56 -29 -36 3 7 11 12 23
12 27 0 5 -4 2 -9 -6 -5 -7 -14 -10 -20 -7 -25 16 -8 26 39 24 28 -1 50 -5 50
-8z m-1350 -30 c0 -11 -7 -20 -15 -20 -18 0 -19 12 -3 28 16 16 18 15 18 -8z
m2349 8 c0 -7 -4 -22 -8 -32 -6 -15 -10 -16 -16 -7 -4 8 -2 16 5 21 7 4 9 13
6 19 -4 6 -2 11 3 11 6 0 11 -6 10 -12z m41 -3 c0 -8 -4 -15 -10 -15 -5 0 -10
7 -10 15 0 8 5 15 10 15 6 0 10 -7 10 -15z m-2855 -25 c3 -5 -3 -10 -15 -10
-12 0 -18 5 -15 10 3 6 10 10 15 10 5 0 12 -4 15 -10z m404 -16 c-6 -7 -25
-20 -41 -29 -25 -12 -29 -12 -24 0 3 10 0 12 -11 8 -11 -4 -14 -2 -11 8 3 8
17 14 32 15 15 1 32 6 38 12 16 16 31 3 17 -14z m606 4 c-4 -10 -14 -14 -26
-11 -26 7 -24 21 4 25 28 5 29 4 22 -14z m711 -58 c-3 -44 -11 -90 -15 -103
-5 -12 -12 -31 -16 -41 -4 -14 -9 -16 -16 -9 -8 8 -6 27 5 64 8 30 18 80 21
112 4 31 11 57 17 57 7 0 9 -26 4 -80z m-1666 61 c0 -12 -28 -22 -34 -12 -3 5
-3 11 1 15 9 9 33 7 33 -3z m1724 -17 c3 -8 2 -12 -4 -9 -6 3 -10 10 -10 16 0
14 7 11 14 -7z m911 -4 c3 -5 -1 -10 -9 -10 -9 0 -16 5 -16 10 0 6 4 10 9 10
6 0 13 -4 16 -10z m-2635 -29 c13 -26 13 -31 -4 -31 -8 0 -17 8 -20 17 -5 12
-9 14 -18 5 -15 -15 -58 -16 -58 -2 0 6 6 10 13 11 23 1 49 8 55 13 10 11 21
6 32 -13z m-193 -12 c5 -17 11 -20 37 -15 29 5 30 5 11 -9 -11 -8 -25 -19 -31
-24 -7 -5 -15 -7 -18 -3 -4 3 -4 0 -1 -9 3 -8 -2 -23 -11 -34 -8 -11 -13 -14
-9 -7 7 14 -4 16 -24 3 -8 -5 -9 -11 -3 -15 11 -7 5 -44 -12 -65 -9 -12 -7
-13 9 -6 21 8 67 16 98 16 9 0 17 4 17 10 0 5 8 9 19 9 10 0 24 7 31 15 7 8
20 15 29 15 11 0 12 3 4 8 -13 8 -6 62 9 62 5 0 6 5 3 10 -9 15 3 12 36 -7 23
-14 32 -15 38 -5 9 14 79 52 98 52 25 0 1 -26 -42 -45 -49 -22 -60 -39 -19
-29 20 5 25 3 22 -7 -4 -10 -20 -13 -54 -12 -34 1 -41 0 -25 -5 14 -4 26 -13
28 -19 6 -16 -35 -27 -52 -13 -11 9 -18 7 -33 -8 -10 -10 -40 -29 -66 -41 -40
-20 -49 -21 -63 -10 -15 12 -16 12 -10 -4 6 -15 3 -17 -16 -11 -12 3 -19 3
-15 -1 7 -8 -23 -44 -33 -38 -4 1 -10 -9 -13 -23 -5 -17 -12 -24 -21 -20 -10
3 -20 -5 -30 -24 -9 -17 -22 -30 -30 -30 -7 0 -15 -10 -17 -22 -2 -19 -11 -24
-43 -28 -35 -4 -40 -8 -40 -30 0 -20 5 -24 24 -22 37 6 15 -15 -24 -22 -19 -4
-42 -14 -51 -24 -10 -9 -22 -17 -28 -17 -22 0 -20 -20 2 -23 35 -5 20 -27 -21
-30 -21 -2 -35 -7 -32 -12 3 -5 1 -11 -4 -15 -18 -11 0 -33 22 -28 19 4 20 3
5 -6 -9 -6 -43 -14 -75 -17 -48 -5 -62 -3 -82 13 -15 12 -21 25 -17 32 6 9 12
9 24 -3 21 -18 72 -32 72 -18 0 5 -8 12 -17 14 -20 5 -50 54 -40 65 4 4 24 8
44 10 19 1 38 5 42 9 3 4 -4 4 -16 1 -19 -4 -22 -1 -19 16 3 12 5 25 5 28 1 3
19 12 41 19 22 7 40 19 40 26 0 6 24 27 53 45 28 18 54 36 57 40 3 3 15 9 28
13 12 4 22 11 22 15 0 5 13 11 28 14 16 3 43 20 60 38 33 34 43 65 18 56 -8
-3 -20 1 -26 9 -10 11 -8 22 6 51 10 21 18 43 19 48 3 32 52 115 67 115 5 0
12 -9 15 -21z m433 -1 c0 -6 -9 -8 -20 -5 -11 3 -23 1 -26 -4 -9 -15 -24 -10
-18 5 10 25 64 28 64 4z m2368 4 c2 -7 -7 -12 -22 -12 -27 0 -35 15 -13 23 17
7 30 3 35 -11z m-2698 -52 c0 -43 -83 -115 -118 -103 -15 6 19 68 52 95 23 19
66 24 66 8z m258 -9 c3 -8 -1 -12 -9 -9 -7 2 -15 10 -17 17 -3 8 1 12 9 9 7
-2 15 -10 17 -17z m342 4 c0 -1 -6 -21 -14 -43 -8 -22 -14 -42 -13 -44 1 -1
-11 12 -26 30 -26 29 -57 46 -42 22 3 -6 -1 -7 -9 -4 -21 8 -20 11 9 27 22 11
95 21 95 12z m2049 -21 c2 -2 -9 -4 -25 -4 -16 0 -39 -3 -51 -6 -13 -4 -23 -2
-23 4 0 18 80 22 99 6z m-36 -51 c-7 -2 -19 -2 -25 0 -7 3 -2 5 12 5 14 0 19
-2 13 -5z m-2332 -67 c-6 -14 -17 -26 -26 -26 -21 0 -19 8 7 35 27 28 32 26
19 -9z m-774 -43 c-2 -16 -4 -5 -4 22 0 28 2 40 4 28 2 -13 2 -35 0 -50z
m3053 42 c0 -8 -5 -15 -11 -15 -6 0 -17 7 -25 15 -14 13 -13 15 10 15 16 0 26
-6 26 -15z m-140 -21 c0 -2 -21 -4 -47 -4 -27 0 -43 4 -36 8 12 8 83 4 83 -4z
m-2620 -16 c0 -18 -54 -58 -77 -58 -28 0 -28 3 -6 41 14 24 23 29 41 24 15 -4
21 -2 17 4 -3 7 0 8 9 5 9 -3 16 -11 16 -16z m950 7 c0 -8 -2 -15 -4 -15 -2 0
-6 7 -10 15 -3 8 -1 15 4 15 6 0 10 -7 10 -15z m1837 -17 c-3 -8 -6 -5 -6 6
-1 11 2 17 5 13 3 -3 4 -12 1 -19z m-77 -3 c0 -9 -6 -12 -15 -9 -8 4 -12 10
-9 15 8 14 24 10 24 -6z m-2382 -29 c3 -15 0 -17 -20 -11 -30 10 -31 11 -23
25 10 17 39 8 43 -14z m2269 -3 c3 -7 -3 -9 -16 -6 -12 3 -21 10 -21 15 0 13
32 6 37 -9z m-2392 -33 c-21 -22 -41 -37 -44 -34 -6 6 64 74 76 74 4 0 -10
-18 -32 -40z m2329 24 c17 -16 21 -34 9 -34 -10 1 -53 36 -53 44 0 12 29 6 44
-10z m-350 -7 c4 4 4 0 0 -10 -8 -23 -20 -21 -27 4 -4 15 -2 18 7 10 7 -6 16
-8 20 -4z m-2605 -72 c12 4 21 -2 29 -17 l11 -23 0 22 c1 31 18 38 33 13 7
-11 22 -20 33 -20 15 0 17 2 6 9 -20 13 19 24 47 14 22 -8 19 -21 -9 -38 -9
-5 -42 -27 -72 -48 -34 -23 -65 -37 -79 -35 -21 3 -21 4 -4 21 14 14 16 21 7
30 -8 8 -11 8 -11 -1 0 -7 -4 -12 -9 -12 -4 0 -11 20 -14 45 -4 24 -12 53 -19
64 -9 16 -9 23 3 37 12 15 15 13 22 -25 7 -34 12 -41 26 -36z m541 45 c0 -5
-4 -10 -10 -10 -5 0 -10 5 -10 10 0 6 5 10 10 10 6 0 10 -4 10 -10z m261 -13
c-10 -9 -11 -8 -5 6 3 10 9 15 12 12 3 -3 0 -11 -7 -18z m2117 -22 c4 -16 2
-16 -22 0 -14 10 -26 24 -26 32 0 14 3 14 23 1 12 -9 24 -23 25 -33z m-2458
27 c0 -13 -12 -22 -22 -16 -10 6 -1 24 13 24 5 0 9 -4 9 -8z m360 -22 c0 -5
-5 -10 -11 -10 -5 0 -7 5 -4 10 3 6 8 10 11 10 2 0 4 -4 4 -10z m-325 -19 c-3
-6 -14 -10 -23 -10 -15 1 -15 2 1 6 9 2 17 9 17 15 0 6 3 9 6 5 3 -3 3 -10 -1
-16z m1939 4 c2 -6 -2 -12 -10 -12 -7 0 -15 6 -18 12 -2 6 2 12 10 12 7 0 15
-6 18 -12z m448 -12 c31 -28 22 -47 -12 -22 -16 12 -27 26 -24 31 8 12 15 10
36 -9z m-2472 -10 c0 -10 -52 -34 -59 -28 -6 7 31 34 47 35 6 0 12 -3 12 -7z
m2450 -33 c11 -11 20 -27 20 -35 0 -12 -7 -9 -27 10 -15 14 -31 25 -35 25 -5
0 -8 5 -8 10 0 17 29 11 50 -10z m-2420 0 c0 -5 -7 -10 -15 -10 -8 0 -15 5
-15 10 0 6 7 10 15 10 8 0 15 -4 15 -10z m2369 -47 c-5 -14 -7 -28 -4 -31 3
-3 5 0 5 7 0 7 5 9 10 6 12 -7 14 -45 3 -45 -5 1 -21 12 -38 25 -25 21 -27 25
-11 31 9 4 15 12 12 20 -3 7 0 15 7 17 21 7 27 -3 16 -30z m-2409 -3 c0 -5 -4
-10 -10 -10 -5 0 -10 5 -10 10 0 6 5 10 10 10 6 0 10 -4 10 -10z m-44 -35
c-23 -17 -36 -19 -36 -6 0 11 18 19 40 20 11 0 10 -3 -4 -14z m162 3 c-6 -18
-25 -21 -31 -5 -3 8 3 13 15 14 10 1 18 -3 16 -9z m2246 -21 c8 -12 7 -20 -2
-29 -14 -14 -17 -11 -26 25 -8 32 9 34 28 4z m832 9 c20 -21 17 -28 -6 -14
-11 7 -20 16 -20 20 0 12 10 9 26 -6z m-3240 -65 c-11 -25 -11 -25 -14 -3 -2
13 -10 26 -18 29 -8 3 -14 9 -14 13 0 5 13 3 29 -3 27 -10 28 -13 17 -36z
m2374 20 c5 -11 10 -27 10 -36 0 -12 -7 -8 -24 12 -23 27 -25 43 -6 43 5 0 14
-9 20 -19z m899 -41 c0 -10 -3 -8 -9 5 -12 27 -12 43 0 25 5 -8 9 -22 9 -30z
m-2129 20 c0 -5 -5 -10 -11 -10 -5 0 -7 5 -4 10 3 6 8 10 11 10 2 0 4 -4 4
-10z m1211 -38 c3 -17 4 -32 1 -32 -14 0 -42 35 -42 52 0 33 33 17 41 -20z
m-1301 -24 c0 -23 -3 -38 -7 -34 -5 4 -8 23 -8 42 0 19 3 34 8 34 4 0 7 -19 7
-42z m130 32 c0 -5 -5 -10 -11 -10 -5 0 -7 5 -4 10 3 6 8 10 11 10 2 0 4 -4 4
-10z m1149 -69 c-16 -5 -49 30 -49 52 0 16 5 14 30 -14 16 -19 25 -36 19 -38z
m-2259 43 c0 -8 -4 -12 -10 -9 -5 3 -10 10 -10 16 0 5 5 9 10 9 6 0 10 -7 10
-16z m3140 -10 c0 -8 -4 -14 -10 -14 -5 0 -10 9 -10 21 0 11 5 17 10 14 6 -3
10 -13 10 -21z m-3318 -30 c-23 -16 -104 -35 -112 -27 -3 3 1 8 8 10 6 3 31
15 55 28 29 16 46 19 55 12 10 -8 8 -13 -6 -23z m1365 -26 c-2 -18 1 -39 6
-45 6 -8 6 -13 0 -13 -18 0 -32 48 -26 85 8 47 25 24 20 -27z m747 17 c-11 -8
-25 -15 -32 -15 -21 0 -8 23 19 37 30 15 40 -2 13 -22z m133 23 c-2 -7 -12
-12 -21 -12 -9 1 -16 -4 -16 -12 0 -7 -8 -18 -17 -23 -17 -10 -17 -10 -1 -11
9 0 20 5 23 11 5 6 13 2 22 -11 11 -15 12 -24 5 -29 -6 -4 -1 -11 12 -17 21
-10 23 -9 18 9 -3 14 -1 18 6 13 15 -9 16 -43 1 -52 -6 -3 -8 -18 -5 -33 5
-17 4 -22 -3 -12 -7 11 -10 9 -16 -8 -3 -11 -11 -21 -16 -21 -12 0 -11 31 1
50 6 10 4 20 -8 33 -9 10 -17 26 -17 35 0 13 -8 16 -30 14 -16 -2 -35 -9 -40
-16 -6 -8 -26 -22 -45 -32 -44 -25 -90 -55 -111 -74 -9 -8 -28 -25 -42 -38
-15 -13 -32 -20 -41 -16 -10 4 -18 0 -22 -10 -3 -9 -15 -16 -26 -16 -11 0 -28
-5 -38 -10 -11 -6 -21 -6 -24 -1 -3 5 8 14 24 20 17 5 30 15 30 20 0 6 6 11
14 11 8 0 35 16 60 35 26 19 49 35 53 35 3 0 20 10 37 23 17 13 39 26 48 30
10 3 28 22 40 41 13 20 39 43 58 51 19 9 42 20 50 25 22 13 42 12 37 -2z m128
2 c3 -5 1 -10 -4 -10 -6 0 -11 5 -11 10 0 6 2 10 4 10 3 0 8 -4 11 -10z
m-1083 -12 c-7 -7 -12 -21 -11 -32 0 -21 0 -21 9 -1 9 22 13 16 24 -37 6 -24
3 -28 -16 -28 -20 0 -21 -1 -4 -13 17 -12 17 -14 -1 -28 -16 -13 -17 -13 -4 4
12 15 11 17 -3 17 -13 0 -16 10 -16 49 0 56 7 81 23 81 7 0 7 -4 -1 -12z
m1026 -45 c2 -42 0 -45 -12 -28 -16 24 -28 70 -20 78 15 15 30 -8 32 -50z
m-1093 -91 c6 -34 5 -35 -8 -17 -8 10 -13 24 -10 30 2 7 -1 24 -6 38 -6 15 -7
42 -4 59 7 31 8 30 14 -20 4 -29 10 -69 14 -90z m302 116 c-3 -8 -6 -5 -6 6
-1 11 2 17 5 13 3 -3 4 -12 1 -19z m831 -3 c14 -29 -2 -44 -17 -16 -6 11 -11
24 -11 30 0 20 17 11 28 -14z m-2288 -3 c0 -13 -76 -52 -101 -52 -22 0 -21 2
11 22 19 13 37 26 38 30 5 11 52 10 52 0z m1100 -36 c0 -17 5 -37 11 -43 6 -6
9 -19 7 -29 -2 -13 -10 -2 -21 30 -19 55 -22 90 -7 81 6 -3 10 -21 10 -39z
m1100 24 c0 -5 -4 -10 -10 -10 -5 0 -10 5 -10 10 0 6 5 10 10 10 6 0 10 -4 10
-10z m-2140 -14 c0 -12 -73 -56 -93 -56 -20 0 -2 21 36 43 50 30 57 31 57 13z
m764 -12 c9 -8 16 -20 16 -25 0 -15 -30 -10 -47 7 -14 13 -14 17 -2 25 18 11
15 12 33 -7z m129 -13 c4 -17 2 -18 -13 -8 -10 6 -16 15 -14 19 9 14 22 9 27
-11z m-823 -1 c0 -6 -11 -23 -25 -38 -28 -30 -34 -15 -9 23 17 26 34 33 34 15z
m925 -29 c-9 -16 -25 -3 -18 15 4 10 9 12 15 6 6 -6 7 -15 3 -21z m875 9 c0
-5 -5 -10 -11 -10 -5 0 -7 5 -4 10 3 6 8 10 11 10 2 0 4 -4 4 -10z m-1740 -9
c0 -11 -42 -43 -48 -37 -2 2 3 13 10 25 13 21 38 29 38 12z m1958 -19 c6 -18
-15 -14 -22 4 -4 10 -1 14 6 12 6 -2 14 -10 16 -16z m-1078 -17 c0 -8 -4 -15
-10 -15 -5 0 -10 7 -10 15 0 8 5 15 10 15 6 0 10 -7 10 -15z m-820 -15 c0 -11
-42 -31 -49 -24 -2 2 2 10 9 19 14 17 40 20 40 5z m1891 -17 c15 -40 4 -52
-14 -16 -20 37 -21 43 -7 43 6 0 15 -12 21 -27z m-28 -35 c10 -29 -4 -28 -30
2 -27 33 -23 60 6 32 10 -9 20 -24 24 -34z m-1836 -1 c-8 -15 -17 -24 -20 -21
-3 4 1 17 10 30 20 32 27 25 10 -9z m1799 -45 c-7 -8 -26 -15 -40 -15 -16 -1
-24 -7 -22 -14 7 -19 -12 -26 -27 -11 -16 15 -28 68 -16 68 4 0 10 -4 13 -9 3
-5 22 -11 41 -13 23 -3 32 -1 25 6 -6 6 -10 19 -10 30 0 18 1 18 25 -4 22 -21
23 -26 11 -38z m-1746 43 c0 -3 -9 -14 -20 -25 -22 -22 -25 -19 -10 11 10 17
30 27 30 14z m1870 -16 c0 -5 -7 -9 -15 -9 -9 0 -12 6 -9 15 6 15 24 11 24 -6z
m-1240 -11 c0 -6 -6 -5 -15 2 -8 7 -15 14 -15 16 0 2 7 1 15 -2 8 -4 15 -11
15 -16z m2065 1 c0 -8 9 -14 19 -14 12 0 20 -8 22 -23 5 -28 -23 -30 -57 -4
-13 10 -33 22 -44 26 -20 7 -20 8 -1 21 23 17 61 13 61 -6z m-2650 -19 c-3 -5
-11 -10 -16 -10 -6 0 -7 5 -4 10 3 6 11 10 16 10 6 0 7 -4 4 -10z m1835 -5 c0
-8 0 -18 1 -22 0 -4 -4 -9 -10 -11 -6 -2 -11 8 -11 22 0 14 5 26 10 26 6 0 10
-7 10 -15z m-273 -9 c-3 -8 1 -17 9 -20 24 -9 -1 -46 -26 -39 -24 6 -25 16 -4
48 18 27 29 33 21 11z m-1487 -6 c0 -12 -28 -25 -36 -17 -9 9 6 27 22 27 8 0
14 -5 14 -10z m2126 -36 c-5 -13 -10 -14 -18 -6 -6 6 -8 18 -4 28 5 13 10 14
18 6 6 -6 8 -18 4 -28z m414 17 c14 -28 13 -61 -3 -55 -9 3 -12 -4 -11 -23 1
-16 3 -40 3 -55 1 -16 8 -29 19 -32 19 -6 47 -45 38 -54 -3 -3 -15 6 -26 21
-15 18 -33 27 -70 32 l-50 7 19 26 c10 15 22 48 25 74 4 26 9 55 12 63 8 21
31 19 44 -4z m-2461 -10 c7 -5 11 -14 7 -20 -7 -11 -46 7 -46 21 0 11 22 10
39 -1z m2526 -11 c3 -5 -1 -10 -9 -10 -9 0 -16 5 -16 10 0 6 4 10 9 10 6 0 13
-4 16 -10z m-2591 -6 c28 -11 17 -24 -18 -24 -19 0 -37 -6 -39 -12 -4 -10 -6
-10 -6 -1 -1 6 9 19 21 27 26 19 22 18 42 10z m1381 -11 c11 -29 15 -73 6 -73
-5 0 -16 10 -25 23 -16 22 -16 22 -10 -8 4 -16 12 -36 18 -44 9 -12 8 -12 -11
-2 -13 6 -23 16 -23 21 0 6 -4 10 -10 10 -14 0 -12 -28 3 -33 6 -2 8 -8 4 -13
-11 -11 -41 9 -45 30 -2 10 -1 25 3 34 5 14 7 14 15 2 10 -15 12 -11 14 25 1
13 7 19 19 17 10 -2 17 3 17 13 0 20 16 19 25 -2z m59 -16 c12 -19 3 -32 -19
-24 -17 7 -21 51 -3 45 6 -2 16 -12 22 -21z m646 -1 c13 -15 20 -31 16 -41 -5
-14 -8 -14 -36 0 -33 17 -38 32 -14 42 13 5 13 7 2 14 -7 5 -8 9 -2 9 6 0 21
-11 34 -24z m556 -31 c-3 -9 1 -15 9 -15 20 0 19 -26 0 -34 -9 -3 -15 0 -15 9
0 8 -5 15 -10 15 -6 0 -8 11 -4 25 5 20 3 24 -10 19 -19 -7 -21 7 -4 24 9 9
15 7 26 -9 7 -11 11 -26 8 -34z m-1370 -40 c0 -55 -2 -65 -15 -63 -11 2 -18
19 -22 48 -5 37 -3 47 15 62 12 9 21 17 21 18 0 0 0 -29 1 -65z m-1213 48 c-7
-2 -21 -2 -30 0 -10 3 -4 5 12 5 17 0 24 -2 18 -5z m2530 -31 c24 -40 38 -100
26 -108 -10 -6 -39 19 -39 35 0 5 -11 18 -25 29 -25 20 -30 37 -19 67 10 24
36 14 57 -23z m-2545 7 c16 -5 32 -19 35 -29 4 -15 -3 -19 -42 -22 -25 -3 -53
-1 -61 3 -12 7 -11 8 6 9 20 0 44 17 44 31 0 4 -8 10 -17 12 -10 3 -13 5 -7 6
6 0 25 -4 42 -10z m536 -5 c3 -8 2 -12 -4 -9 -6 3 -10 10 -10 16 0 14 7 11 14
-7z m-1414 -26 c0 -6 -7 -7 -16 -4 -9 3 -18 6 -20 6 -3 0 -3 4 1 10 7 11 35 2
35 -12z m1191 -38 c0 -3 2 -13 4 -22 3 -19 -11 -23 -33 -10 -8 5 -10 16 -6 27
5 12 4 16 -4 11 -15 -9 -52 11 -52 29 0 24 24 22 57 -4 18 -14 33 -28 34 -31z
m855 18 c-2 -24 -7 -51 -11 -60 -4 -9 -4 -22 0 -28 9 -15 -10 -12 -23 3 -14
16 -5 109 11 119 23 15 28 8 23 -34z m849 32 c3 -5 11 -7 18 -5 7 3 18 -7 25
-22 15 -33 16 -77 2 -68 -6 4 -8 16 -5 28 6 20 5 20 -14 -3 -24 -30 -26 -53
-6 -70 29 -24 15 -31 -15 -8 -20 15 -29 30 -26 45 2 14 -1 20 -10 16 -23 -9
-25 18 -2 38 13 11 18 18 12 15 -16 -8 -25 19 -11 33 14 14 24 14 32 1z m669
-32 c-9 -14 -24 2 -24 25 1 21 1 21 15 3 8 -10 12 -23 9 -28z m-1584 -23 c0
-14 -4 -25 -10 -25 -5 0 -10 11 -10 25 0 14 5 25 10 25 6 0 10 -11 10 -25z
m-995 5 c-3 -5 -10 -10 -16 -10 -5 0 -9 5 -9 10 0 6 7 10 16 10 8 0 12 -4 9
-10z m917 -47 c2 -32 3 -60 1 -62 -7 -10 -32 36 -33 58 0 13 -3 22 -6 18 -3
-3 -6 -21 -6 -41 0 -26 -4 -33 -14 -29 -22 8 -16 49 12 82 14 17 29 31 34 31
4 0 10 -26 12 -57z m48 1 c0 -32 -4 -44 -12 -42 -14 5 -23 61 -14 85 11 27 26
2 26 -43z m1766 29 c-7 -7 -26 7 -26 19 0 6 6 6 15 -2 9 -7 13 -15 11 -17z
m-2799 11 c35 -10 16 -24 -31 -24 -23 0 -47 -5 -53 -11 -14 -14 -46 -3 -41 14
4 10 31 17 93 25 6 1 20 -1 32 -4z m227 -51 c22 -21 52 -45 66 -54 34 -23 19
-34 -19 -15 -16 9 -38 17 -48 19 -10 1 -24 6 -31 11 -8 5 -12 3 -10 -6 2 -8
-9 -14 -31 -16 -23 -2 -35 -9 -38 -23 -3 -10 -10 -19 -15 -19 -5 0 -6 -5 -2
-12 5 -8 13 -4 26 11 16 21 18 22 18 4 0 -10 -5 -24 -12 -31 -18 -18 3 -14 24
5 27 24 33 8 9 -25 -12 -17 -21 -38 -21 -47 0 -14 -3 -15 -15 -5 -8 7 -12 16
-9 21 3 5 -2 9 -11 9 -12 0 -14 4 -6 19 9 16 8 18 -9 14 -11 -3 -20 -12 -20
-19 0 -8 -4 -14 -10 -14 -5 0 -10 9 -10 19 0 11 5 23 10 26 6 3 10 16 10 28 0
19 -2 18 -19 -9 -19 -32 -41 -52 -41 -38 0 15 51 94 61 94 6 0 7 -6 3 -12 -4
-7 5 -2 19 11 15 14 27 21 27 17 0 -4 5 -4 10 -1 13 8 -13 35 -33 35 -8 0 -17
7 -21 15 -4 12 2 14 32 10 20 -2 44 0 52 5 21 13 18 14 64 -27z m2013 31 c-3
-3 -12 -4 -19 -1 -8 3 -5 6 6 6 11 1 17 -2 13 -5z m-1722 -14 c3 -5 2 -10 -4
-10 -5 0 -13 5 -16 10 -3 6 -2 10 4 10 5 0 13 -4 16 -10z m389 0 c-7 -7 -8
-28 -4 -54 5 -33 3 -43 -6 -39 -7 2 -15 16 -18 29 -7 28 -26 23 -26 -7 0 -25
-24 -20 -29 6 -3 20 53 74 79 75 10 0 11 -3 4 -10z m1509 -15 c4 -8 16 -15 25
-15 18 0 42 -18 42 -32 0 -7 -52 -38 -65 -38 -3 0 -5 6 -5 14 0 8 -4 17 -9 20
-15 10 5 -60 25 -88 11 -14 25 -26 32 -26 6 0 13 -3 13 -7 1 -5 3 -21 5 -37
l3 -29 -37 39 c-20 22 -52 50 -69 62 -36 26 -41 46 -17 80 14 20 14 24 0 38
-9 8 -16 22 -16 31 0 12 7 14 32 9 18 -3 36 -13 41 -21z m-1255 6 c11 -7 11
-9 -1 -14 -16 -6 -27 0 -27 15 0 10 11 10 28 -1z m767 -7 c9 -9 14 -23 11 -30
-3 -8 -1 -14 4 -14 5 0 14 -10 21 -21 13 -25 -1 -40 -32 -32 -10 3 -19 0 -19
-6 0 -6 7 -11 15 -11 8 0 15 -2 15 -4 0 -2 3 -11 6 -20 4 -10 1 -16 -9 -16 -8
0 -28 27 -44 63 -25 50 -28 64 -17 70 8 4 14 15 14 22 0 20 15 19 35 -1z
m-1935 -3 c0 -5 -15 -19 -34 -31 -19 -11 -39 -33 -45 -48 -9 -24 -10 -22 -7
17 2 29 10 49 22 58 20 15 64 18 64 4z m80 -11 c0 -4 -11 -10 -23 -14 -13 -3
-41 -19 -63 -36 -23 -19 -40 -27 -42 -20 -4 12 17 30 78 66 34 20 50 22 50 4z
m270 16 c0 -2 -9 -6 -20 -9 -11 -3 -18 -1 -14 4 5 9 34 13 34 5z m290 -6 c0
-5 -11 -10 -24 -10 -13 0 -27 -7 -30 -16 -4 -10 -12 -14 -23 -10 -9 4 -23 0
-32 -8 -9 -8 -18 -15 -21 -15 -3 0 -18 -5 -35 -11 -41 -16 -95 -18 -95 -4 0
14 28 27 40 19 5 -3 11 -1 15 5 3 5 16 10 28 10 13 0 33 7 46 17 39 27 131 43
131 23z m1590 -21 c0 -11 -4 -17 -10 -14 -5 3 -10 13 -10 21 0 8 5 14 10 14 6
0 10 -9 10 -21z m-1410 -47 c0 -23 -4 -32 -12 -30 -15 5 -23 52 -13 76 9 25
25 -4 25 -46z m-91 -28 c-19 -38 -44 -46 -35 -11 3 14 2 29 -4 32 -9 6 -15
-27 -12 -67 2 -22 -6 -23 -29 -2 -28 25 0 91 40 96 41 6 56 -13 40 -48z m47
-11 c-12 -12 -26 11 -25 40 l1 32 14 -34 c8 -18 13 -36 10 -38z m1104 20 c8
-10 7 -13 -5 -13 -8 0 -15 6 -15 14 0 8 -7 17 -16 20 -8 3 -12 11 -8 17 5 8
11 6 20 -7 7 -10 18 -25 24 -31z m-1260 -30 c-1 -58 -2 -66 -14 -51 -7 10 -16
15 -19 12 -6 -7 -24 26 -23 43 1 10 44 60 54 62 1 1 2 -29 2 -66z m1193 60
c-7 -2 -21 -2 -30 0 -10 3 -4 5 12 5 17 0 24 -2 18 -5z m-1789 -25 c-10 -13
-20 -25 -21 -27 -1 -1 -7 0 -13 4 -14 9 16 45 38 45 12 0 12 -4 -4 -22z m526
-43 c0 -60 -15 -71 -52 -38 -17 15 -18 15 -18 -1 0 -22 -24 -15 -28 8 -2 10
-1 29 2 42 6 21 11 24 41 20 26 -3 35 -1 35 10 0 8 5 14 10 14 6 0 10 -25 10
-55z m1670 34 c0 -5 -7 -9 -15 -9 -8 0 -15 7 -15 15 0 9 6 12 15 9 8 -4 15
-10 15 -15z m290 11 c0 -5 -4 -10 -10 -10 -5 0 -10 5 -10 10 0 6 5 10 10 10 6
0 10 -4 10 -10z m206 -2 c15 -24 13 -58 -4 -58 -13 0 -17 9 -18 35 -1 35 9 45
22 23z m-2491 -48 c-8 -16 -15 -38 -15 -50 0 -23 -18 -27 -26 -5 -7 17 36 96
48 89 4 -3 1 -18 -7 -34z m85 20 c26 14 67 3 51 -13 -6 -6 -11 -17 -11 -24 0
-8 14 -3 37 13 23 15 39 21 41 14 7 -20 -7 -40 -28 -40 -11 0 -20 -5 -20 -11
0 -7 -9 -9 -21 -6 -15 4 -23 -1 -30 -20 -9 -25 -10 -25 -24 -7 -8 10 -15 33
-15 49 l0 30 -21 -32 c-12 -18 -25 -30 -30 -27 -13 7 -11 19 7 62 14 34 16 36
29 19 11 -15 17 -17 35 -7z m1708 2 c6 -18 -15 -14 -22 4 -4 10 -1 14 6 12 6
-2 14 -10 16 -16z m493 -9 c5 -5 7 -17 3 -26 -5 -15 -8 -15 -39 0 -49 24 -54
44 -9 40 19 -3 40 -9 45 -14z m258 -14 c-6 -3 -11 -29 -11 -58 1 -29 -4 -51
-10 -51 -6 0 -8 10 -5 23 4 12 2 28 -2 36 -6 9 -3 26 7 46 10 20 20 28 24 22
4 -6 2 -14 -3 -18z m-906 -4 c4 -8 2 -17 -4 -20 -5 -4 -7 -10 -5 -14 3 -4 1
-13 -3 -20 -7 -10 -12 -10 -29 0 -20 12 -20 14 -4 41 18 31 37 36 45 13z m67
-56 c0 -15 -5 -19 -15 -15 -8 3 -15 1 -15 -4 0 -6 -4 -10 -9 -10 -13 0 -20 63
-8 78 13 17 47 -18 47 -49z m756 43 c27 -18 35 -51 19 -82 -9 -16 -19 -30 -24
-30 -12 0 -35 86 -28 105 7 16 16 19 33 7z m-282 -22 c12 -12 7 -17 -24 -24
-18 -4 -33 1 -55 20 l-30 26 50 -6 c27 -3 54 -11 59 -16z m-228 -4 c20 -21 17
-28 -6 -14 -11 7 -20 16 -20 20 0 12 10 9 26 -6z m-1656 -36 c0 -5 -2 -10 -4
-10 -3 0 -8 5 -11 10 -3 6 -1 10 4 10 6 0 11 -4 11 -10z m1277 -5 c12 -8 28
-13 36 -10 7 3 20 -2 28 -11 12 -15 12 -17 0 -9 -10 6 -13 4 -9 -6 4 -10 -2
-15 -18 -17 -15 -1 -24 4 -24 13 0 17 -16 20 -25 5 -9 -15 -27 0 -21 17 4 11
2 13 -9 9 -15 -5 -21 5 -8 17 10 11 27 8 50 -8z m523 -6 c0 -6 7 -8 16 -5 13
5 15 2 10 -16 -3 -13 -6 -29 -6 -35 0 -7 -4 -13 -10 -13 -5 0 -10 6 -10 14 0
7 -10 20 -22 28 -12 8 -18 19 -14 26 9 15 36 16 36 1z m121 -10 c17 -17 20
-30 16 -66 -3 -25 -1 -57 3 -72 8 -27 -3 -71 -18 -71 -11 0 -26 32 -43 90 -7
25 -16 49 -21 55 -13 15 -9 47 9 67 21 23 28 23 54 -3z m-1426 -14 c6 -7 20
-15 33 -19 24 -8 47 -49 43 -76 -2 -8 0 -12 5 -8 4 4 13 3 21 -3 7 -6 13 -8
13 -5 0 4 12 -5 27 -19 15 -14 31 -25 34 -25 12 0 29 -67 33 -125 3 -41 -23
-85 -50 -85 -7 0 -16 -9 -19 -20 -3 -11 -13 -20 -22 -20 -9 0 -13 6 -9 15 3 8
9 22 12 30 3 8 1 15 -5 15 -6 0 -11 6 -11 14 0 10 -14 9 -71 -6 -89 -25 -99
-21 -93 32 4 28 2 40 -6 35 -6 -3 -7 -11 -4 -17 5 -7 1 -9 -9 -5 -11 4 -17 1
-17 -8 0 -8 5 -15 10 -15 6 0 10 -4 10 -10 0 -5 -7 -10 -15 -10 -8 0 -15 9
-15 21 0 16 -4 19 -22 14 -21 -6 -21 -6 -7 6 28 23 31 53 9 77 -24 25 -26 50
-5 58 16 7 45 -10 83 -45 16 -16 22 -18 22 -7 0 8 -6 17 -12 20 -10 5 -10 7 1
12 11 5 11 8 0 15 -10 6 -9 10 6 15 25 10 45 29 45 43 0 6 -15 2 -32 -8 -18
-11 -44 -22 -57 -26 l-23 -7 23 33 c13 19 25 36 27 39 2 2 6 -1 11 -8 5 -9 13
-6 31 10 16 15 19 23 11 26 -8 3 -17 -1 -20 -7 -4 -6 -15 -9 -24 -5 -11 4 -19
0 -23 -10 -3 -9 -13 -16 -21 -16 -12 0 -14 7 -9 30 4 22 2 30 -9 30 -18 0 -27
14 -19 34 4 12 17 14 57 9 29 -3 57 -11 62 -18z m1735 -30 c0 -8 -6 -15 -14
-15 -17 0 -28 14 -19 24 12 12 33 6 33 -9z m-1592 -10 c4 -5 1 -5 -5 -1 -19
10 -16 -4 8 -43 11 -18 18 -36 14 -39 -7 -8 -46 31 -68 67 l-18 31 30 -3 c17
-2 34 -7 39 -12z m1132 5 c12 -8 11 -10 -7 -10 -13 0 -23 5 -23 10 0 13 11 13
30 0z m-496 -54 c7 -19 6 -29 -4 -39 -10 -10 -11 -9 -5 2 6 11 3 13 -13 9 -12
-4 -22 -2 -22 3 0 5 -9 9 -20 9 -25 0 -26 27 -2 51 14 14 20 15 37 4 11 -7 24
-24 29 -39z m882 8 c-6 -16 -8 -16 -22 4 -19 28 -8 51 14 29 8 -9 12 -23 8
-33z m-1486 8 c0 -15 -2 -15 -10 -2 -13 20 -13 33 0 25 6 -3 10 -14 10 -23z
m1098 -31 c-4 -35 -30 -33 -42 2 -8 22 -7 30 4 37 21 13 42 -9 38 -39z m32 40
c0 -5 12 -11 28 -13 23 -3 27 -7 25 -33 -2 -16 -3 -43 -3 -60 -2 -40 -29 -95
-49 -96 -36 -3 -41 -5 -55 -24 -9 -11 -16 -27 -16 -37 0 -9 -6 -18 -12 -21
-10 -3 -10 -7 0 -19 8 -10 9 -18 3 -22 -13 -8 -31 26 -31 58 0 14 -4 26 -10
26 -5 0 -10 11 -10 25 0 14 5 25 10 25 6 0 10 5 10 10 0 6 -3 9 -7 9 -42 -7
-43 17 -2 26 22 5 36 2 50 -11 10 -9 19 -12 19 -7 0 6 -6 16 -14 22 -8 6 -16
22 -18 34 -4 20 -1 23 24 19 15 -2 28 0 28 6 0 6 7 18 15 26 12 12 13 20 5 35
-13 25 -13 31 0 31 6 0 10 -4 10 -9z m506 -33 c3 -18 13 -43 21 -55 8 -12 12
-27 9 -32 -4 -6 -1 -25 7 -43 8 -20 10 -45 6 -63 -4 -16 -7 -23 -8 -15 0 8
-10 33 -22 55 -22 40 -24 49 -36 144 -7 60 10 66 23 9z m-1605 9 c-10 -9 -11
-8 -5 6 3 10 9 15 12 12 3 -3 0 -11 -7 -18z m1701 -46 c-3 -29 -7 -39 -13 -30
-10 17 -12 83 -2 93 13 12 20 -18 15 -63z m-202 52 c-1 -14 -27 -43 -39 -43
-8 0 -5 9 6 25 18 24 33 32 33 18z m53 1 c7 -7 -33 -54 -46 -54 -5 0 0 14 10
30 18 30 25 35 36 24z m-1563 -33 c0 -6 -4 -13 -10 -16 -5 -3 -10 1 -10 9 0 9
5 16 10 16 6 0 10 -4 10 -9z m445 -1 c21 17 43 2 37 -26 -2 -13 -8 -27 -13
-30 -12 -7 -49 33 -48 54 0 11 2 12 6 4 3 -9 9 -10 18 -2z m-426 -41 c-18 -11
-22 -5 -14 22 7 20 8 21 17 4 8 -12 7 -20 -3 -26z m1551 12 c0 -5 -9 -11 -21
-14 -16 -4 -18 -3 -8 9 13 16 29 19 29 5z m-72 -32 c11 -18 9 -19 -30 -17 -24
1 -37 3 -30 6 6 2 12 12 12 22 0 23 31 16 48 -11z m-1430 -12 c2 -19 -1 -27
-12 -27 -9 0 -16 -4 -16 -10 0 -15 16 -12 34 5 8 8 17 11 20 6 3 -5 -1 -14 -9
-21 -8 -7 -15 -20 -15 -29 0 -11 -7 -8 -25 13 -17 20 -22 32 -14 37 8 5 8 12
0 26 -12 23 -4 35 19 31 8 -2 16 -16 18 -31z m352 16 c0 -17 -15 -16 -30 1 -9
12 -8 15 9 13 12 -1 21 -7 21 -14z m1166 -89 c-10 -26 -23 -15 -34 28 l-11 41
26 -27 c13 -15 22 -34 19 -42z m94 52 c0 -3 -4 -8 -10 -11 -5 -3 -10 -1 -10 4
0 6 5 11 10 11 6 0 10 -2 10 -4z m-177 -27 c38 -17 60 -64 58 -126 -1 -76 -37
-141 -64 -114 -8 8 -7 17 3 35 14 28 8 98 -10 104 -19 7 -70 53 -70 65 0 15
31 47 46 47 7 0 24 -5 37 -11z m-1453 -49 c0 -5 -2 -10 -4 -10 -3 0 -8 5 -11
10 -3 6 -1 10 4 10 6 0 11 -4 11 -10z m-940 -4 c0 -3 -4 -8 -10 -11 -5 -3 -10
-1 -10 4 0 6 5 11 10 11 6 0 10 -2 10 -4z m1785 -6 c3 -5 1 -10 -4 -10 -6 0
-11 5 -11 10 0 6 2 10 4 10 3 0 8 -4 11 -10z m43 -7 c6 -2 12 2 12 7 0 6 5 10
11 10 5 0 7 -4 4 -10 -3 -5 -1 -10 4 -10 6 0 11 -20 11 -45 0 -25 -4 -45 -10
-45 -5 0 -10 -9 -10 -20 0 -11 -4 -20 -9 -20 -5 0 -17 -7 -25 -16 -15 -14 -16
-12 -16 20 0 25 4 36 15 36 8 0 15 5 15 11 0 6 -8 8 -18 5 -12 -4 -25 1 -36
13 -18 19 -17 21 5 49 13 16 26 26 29 23 3 -3 11 -7 18 -8z m657 -2 c-3 -6
-11 -8 -17 -5 -6 4 -5 9 3 15 16 10 23 4 14 -10z m-725 -5 c0 -3 -4 -8 -10
-11 -5 -3 -10 -1 -10 4 0 6 5 11 10 11 6 0 10 -2 10 -4z m-1330 -10 c0 -2 -7
-7 -16 -10 -8 -3 -12 -2 -9 4 6 10 25 14 25 6z m1880 -35 c0 -12 3 -12 12 -3
18 18 36 14 43 -9 5 -14 1 -25 -12 -35 -17 -14 -17 -15 4 -9 18 5 20 2 16 -15
-4 -15 -8 -18 -13 -9 -5 7 -16 9 -25 5 -16 -6 -17 -8 -1 -24 20 -23 20 -32 1
-32 -8 0 -15 -4 -15 -10 0 -5 -4 -10 -8 -10 -4 0 -8 21 -7 47 0 47 -20 83 -46
83 -6 0 -8 7 -5 16 3 9 6 22 6 30 0 11 5 11 25 2 14 -6 25 -18 25 -27z m-2297
3 c-8 -21 -23 -17 -23 6 0 13 5 18 14 14 8 -3 12 -12 9 -20z m571 -5 c-9 -16
-20 -10 -21 12 -2 17 1 18 12 9 8 -7 12 -16 9 -21z m2046 21 c0 -5 -4 -10 -10
-10 -5 0 -10 5 -10 10 0 6 5 10 10 10 6 0 10 -4 10 -10z m-650 -10 c0 -12 -28
-25 -36 -17 -9 9 6 27 22 27 8 0 14 -5 14 -10z m510 1 c0 -6 -4 -13 -10 -16
-5 -3 -10 1 -10 9 0 9 5 16 10 16 6 0 10 -4 10 -9z m-1989 -15 c-9 -11 -9 -15
1 -19 9 -3 7 -11 -9 -28 -12 -12 -26 -19 -30 -15 -4 4 0 12 10 17 22 13 22 29
0 29 -15 0 -14 2 3 15 24 18 40 19 25 1z m1267 -28 c17 -19 21 -31 16 -57 -9
-41 -30 -50 -56 -23 -23 23 -19 68 7 74 10 2 12 7 5 18 -9 13 -12 12 -25 -4
-8 -11 -18 -16 -22 -12 -4 4 -1 11 7 16 8 6 11 10 7 10 -5 0 -5 5 -2 10 8 13
32 0 63 -32z m-867 -20 c-12 -4 -21 -12 -21 -18 0 -6 -4 -8 -10 -5 -17 10 -12
45 5 39 8 -4 15 -1 15 6 0 10 4 9 16 -1 14 -12 14 -14 -5 -21z m-451 18 c0 -3
-4 -8 -10 -11 -5 -3 -10 -1 -10 4 0 6 5 11 10 11 6 0 10 -2 10 -4z m1828 -22
c2 -1 -9 -22 -23 -47 -14 -25 -25 -53 -25 -63 0 -13 -5 -11 -20 9 -11 14 -20
31 -20 39 0 18 29 58 30 41 0 -7 5 -13 11 -13 7 0 9 9 5 24 -7 29 2 39 23 24
9 -7 17 -13 19 -14z m-1498 6 c0 -5 -4 -10 -10 -10 -5 0 -10 5 -10 10 0 6 5
10 10 10 6 0 10 -4 10 -10z m-1183 -33 c8 -9 -59 -19 -97 -15 -18 2 -35 9 -38
15 -3 10 13 12 63 9 36 -2 69 -6 72 -9z m1208 -7 c-10 -11 -23 -20 -30 -20 -7
0 -20 -9 -31 -21 -16 -17 -16 -22 -4 -29 12 -8 9 -10 -11 -10 -14 0 -28 3 -32
6 -11 11 26 55 62 74 51 25 69 25 46 0z m-110 -6 c0 -15 -34 -58 -41 -51 -3 3
1 14 10 23 10 9 15 23 12 31 -4 9 -1 13 6 11 7 -3 13 -9 13 -14z m1807 -39
c-7 -38 -22 -30 -22 11 0 30 3 34 14 25 7 -6 11 -22 8 -36z m-1669 18 c-3 -7
-9 -13 -14 -13 -5 0 -9 6 -9 13 0 8 6 14 14 14 8 0 12 -6 9 -14z m63 -18 c13
-20 14 -28 4 -40 -7 -8 -16 -15 -21 -15 -15 0 -40 47 -33 64 9 23 31 20 50 -9z
m791 10 c-4 -8 -2 -17 4 -20 15 -10 0 -25 -26 -25 -12 0 -25 7 -29 15 -9 25 5
45 31 45 18 0 24 -4 20 -15z m-67 -97 c0 -5 -5 -8 -11 -8 -6 0 -8 7 -4 18 5
14 4 15 -6 5 -7 -7 -17 -13 -21 -13 -12 0 -10 38 3 62 11 20 12 19 25 -18 8
-21 14 -42 14 -46z m668 45 c20 -54 23 -82 8 -90 -7 -4 -15 -17 -17 -27 -6
-28 -27 -31 -25 -4 1 13 -1 42 -5 65 -3 23 -2 48 2 55 5 7 3 16 -4 20 -8 5 -4
8 9 8 14 0 25 -9 32 -27z m-752 -16 c20 -11 17 -34 -4 -39 -30 -8 -55 16 -46
44 7 22 7 22 15 3 7 -18 8 -18 9 5 1 16 4 20 7 10 3 -8 12 -19 19 -23z m-1929
-5 c10 -11 26 -14 78 -10 36 3 65 2 65 -2 0 -8 -112 -21 -145 -16 -30 4 -65
25 -65 40 0 18 51 9 67 -12z m2900 -4 c-3 -7 -5 -2 -5 12 0 14 2 19 5 13 2 -7
2 -19 0 -25z m-1833 16 c9 -3 16 -16 16 -29 0 -26 -40 -45 -96 -45 -69 0 -84
22 -30 44 18 8 37 19 40 25 8 12 45 15 70 5z m1021 -4 c4 -6 11 -8 16 -5 5 4
9 -1 9 -9 0 -9 -8 -16 -17 -16 -19 1 -53 22 -53 34 0 10 38 7 45 -4z m700 0
c-3 -5 -13 -10 -21 -10 -8 0 -12 5 -9 10 3 6 13 10 21 10 8 0 12 -4 9 -10z
m-181 -16 c12 -32 6 -62 -14 -67 -11 -3 -20 -1 -20 4 0 5 -13 3 -29 -5 -16 -9
-31 -12 -35 -9 -12 13 -6 44 11 50 9 4 25 15 35 25 22 22 44 23 52 2z m-977
-18 c-5 -16 -27 -19 -27 -3 0 7 7 14 15 14 9 0 14 -5 12 -11z m-1368 -10 c-2
-2 -42 -7 -89 -10 l-85 -5 85 13 c80 11 99 12 89 2z m1454 -5 c20 12 37 4 37
-17 0 -18 34 -15 36 4 1 6 2 17 3 22 2 15 31 12 31 -2 -1 -13 -65 -88 -75 -88
-3 0 -5 14 -5 30 0 31 -19 43 -21 13 0 -11 -3 -13 -6 -5 -2 6 -11 12 -18 12
-13 0 -25 21 -25 43 0 7 6 5 13 -5 9 -12 17 -14 30 -7z m149 -5 c4 3 9 1 12
-4 3 -5 -3 -17 -14 -27 -25 -23 -52 -6 -31 19 7 8 10 21 6 28 -4 7 0 5 8 -4 8
-10 16 -15 19 -12z m615 -18 c-1 -40 11 -152 18 -170 5 -12 2 -18 -8 -18 -8 0
-18 10 -22 23 -4 12 -8 24 -9 27 -1 3 -10 19 -19 37 -19 36 -22 69 -7 78 6 3
10 15 10 26 0 12 7 19 19 19 13 0 19 -7 18 -22z m-2142 -3 l-50 -12 65 -8 c36
-4 70 -11 75 -15 6 -5 21 -10 35 -12 14 -2 24 -9 23 -16 -2 -8 10 -12 34 -12
44 0 34 -12 -22 -28 -35 -10 -191 -32 -220 -32 -20 0 21 20 43 20 12 0 22 5
22 10 0 6 -10 8 -24 4 -13 -3 -27 -1 -30 5 -4 6 1 11 11 11 10 1 28 6 40 13
25 14 5 14 -184 2 -67 -5 -103 -3 -103 3 0 12 149 28 235 25 l60 -2 -42 10
c-80 19 -48 43 62 46 11 0 -2 -5 -30 -12z m-145 -15 c-70 -16 -163 -29 -171
-24 -14 8 -10 24 4 19 6 -2 44 -1 82 4 93 11 131 12 85 1z m698 -19 c3 -8 -1
-12 -9 -9 -7 2 -15 10 -17 17 -3 8 1 12 9 9 7 -2 15 -10 17 -17z m76 1 c2 -4
-4 -13 -15 -20 -16 -11 -19 -9 -19 8 0 19 24 28 34 12z m1625 -6 c6 -7 11 -27
11 -42 -1 -35 15 -152 25 -176 10 -26 -25 -40 -65 -25 -30 11 -31 14 -25 47
10 52 8 71 -14 113 -23 45 -19 62 18 82 33 18 36 18 50 1z m-1730 -15 c9 -6
10 -10 2 -16 -15 -8 -41 1 -41 15 0 12 20 13 39 1z m1996 -20 c-3 -11 -1 -22
5 -26 5 -3 10 -13 10 -22 0 -14 -3 -14 -20 2 -23 21 -25 36 -8 53 17 17 20 15
13 -7z m-491 -23 c8 -13 7 -21 -1 -29 -15 -15 -53 9 -53 34 0 23 38 20 54 -5z
m-2264 -8 c0 -5 -5 -10 -11 -10 -5 0 -7 5 -4 10 3 6 8 10 11 10 2 0 4 -4 4
-10z m2318 -11 c7 -11 10 -30 6 -41 -4 -14 -2 -18 5 -14 6 4 11 0 11 -9 0 -13
-6 -16 -25 -11 -17 4 -23 3 -20 -6 3 -7 1 -20 -5 -28 -7 -12 -12 -12 -22 -2
-6 6 -22 12 -33 12 -32 0 -53 30 -52 70 l1 35 25 -22 c15 -15 31 -21 43 -17
10 3 18 0 18 -6 0 -6 5 -8 11 -4 7 4 8 9 1 13 -11 7 2 51 15 51 5 0 14 -9 21
-21z m212 11 c0 -5 -4 -10 -10 -10 -5 0 -10 5 -10 10 0 6 5 10 10 10 6 0 10
-4 10 -10z m-1863 -37 c-7 -6 -46 10 -41 18 3 5 14 3 24 -3 11 -7 18 -13 17
-15z m73 -19 c0 -8 -7 -14 -15 -14 -15 0 -21 21 -9 33 10 9 24 -2 24 -19z
m1393 17 c4 0 7 -7 7 -15 0 -8 6 -17 13 -19 6 -3 -1 -6 -16 -6 -33 -1 -62 13
-70 33 -5 13 21 16 66 7z m541 -29 c-6 -20 -24 -32 -24 -14 1 23 14 52 21 45
5 -5 6 -18 3 -31z m-257 -9 c-3 -10 -5 -4 -5 12 0 17 2 24 5 18 2 -7 2 -21 0
-30z m353 16 c0 -11 -4 -17 -10 -14 -5 3 -10 13 -10 21 0 8 5 14 10 14 6 0 10
-9 10 -21z m-210 7 c0 -3 -4 -8 -10 -11 -5 -3 -10 -1 -10 4 0 6 5 11 10 11 6
0 10 -2 10 -4z m-2110 -30 c0 -3 -4 -8 -10 -11 -5 -3 -10 -1 -10 4 0 6 5 11
10 11 6 0 10 -2 10 -4z m1945 -16 c3 -5 -1 -10 -10 -10 -9 0 -13 5 -10 10 3 6
8 10 10 10 2 0 7 -4 10 -10z m-215 -9 c14 -4 27 -17 31 -31 7 -24 7 -24 8 -2
1 23 25 30 37 10 11 -18 5 -83 -10 -120 l-14 -33 1 52 c2 68 -16 71 -26 5 -8
-50 -27 -73 -27 -32 0 11 -4 20 -9 20 -5 0 -11 9 -14 20 -3 11 -1 20 5 20 6 0
-11 19 -36 41 -25 23 -46 45 -46 50 0 10 63 10 100 0z m156 -23 c-3 -18 -12
-36 -19 -40 -11 -7 -3 -12 16 -9 4 0 7 -4 7 -10 0 -6 -9 -8 -21 -4 -14 5 -19
3 -15 -3 3 -6 2 -13 -4 -17 -21 -13 -14 61 8 92 24 32 36 28 28 -9z m-285 6
c17 -15 17 -18 -9 -57 -24 -37 -27 -38 -30 -18 -2 12 2 29 8 37 7 7 8 14 4 14
-5 0 -15 9 -22 20 -11 18 -10 20 10 20 12 0 29 -7 39 -16z m649 -5 c0 -16 -20
-19 -40 -7 -28 18 -25 25 10 20 17 -2 30 -8 30 -13z m-1390 -9 c0 -5 -5 -10
-11 -10 -5 0 -7 5 -4 10 3 6 8 10 11 10 2 0 4 -4 4 -10z m660 -50 c0 -5 5 -21
12 -37 6 -15 12 -43 13 -60 1 -26 -1 -30 -11 -22 -7 6 -18 8 -23 4 -17 -10
-51 13 -44 31 3 8 -1 22 -9 32 -27 31 -28 51 -6 71 19 18 22 19 44 4 13 -8 24
-19 24 -23z m142 17 c27 -21 33 -62 11 -84 -10 -10 -19 -28 -21 -38 -6 -42
-11 -48 -27 -31 -8 8 -15 22 -15 31 0 9 -5 25 -11 36 -7 13 -7 24 -1 32 6 7
11 17 11 22 5 44 22 55 53 32z m525 -14 c-9 -9 -19 -14 -23 -11 -10 10 6 28
24 28 15 0 15 -1 -1 -17z m106 4 c3 -7 -4 -28 -14 -47 -19 -36 -24 -25 -13 29
7 32 18 40 27 18z m-1006 -45 c9 -45 8 -49 -14 -59 -20 -9 -23 -9 -21 4 2 9
-3 18 -9 20 -7 3 -13 -3 -13 -14 -1 -17 -1 -17 -11 0 -6 9 -14 15 -18 13 -13
-9 1 53 15 65 11 9 14 8 14 -4 0 -9 -4 -19 -10 -22 -5 -3 -10 -10 -10 -16 0
-5 9 -4 20 3 11 7 18 18 16 24 -4 12 12 34 25 34 3 0 11 -22 16 -48z m939 -12
c1 -52 -4 -58 -24 -38 -15 15 -15 43 -2 69 17 31 25 22 26 -31z m-1201 31 c3
-5 1 -12 -5 -16 -5 -3 -10 1 -10 9 0 18 6 21 15 7z m125 -32 c0 -32 -3 -39
-12 -31 -7 6 -17 11 -23 11 -5 0 -11 11 -13 23 -2 20 -1 21 8 5 13 -21 30 -13
30 14 0 10 2 19 5 19 3 0 5 -19 5 -41z m272 -5 c6 -23 3 -33 -13 -49 -21 -20
-21 -20 -15 0 3 11 1 27 -4 35 -9 13 -10 13 -11 0 -1 -8 -1 -18 0 -22 1 -10
-32 3 -41 16 -4 6 -8 17 -8 25 0 11 3 11 15 1 12 -10 15 -10 15 4 0 19 16 21
23 4 3 -8 6 -5 6 5 1 28 24 15 33 -19z m654 -1 c-10 -10 -19 5 -10 18 6 11 8
11 12 0 2 -7 1 -15 -2 -18z m-1951 -3 c3 -5 1 -10 -4 -10 -6 0 -11 5 -11 10 0
6 2 10 4 10 3 0 8 -4 11 -10z m2035 -15 c0 -8 -7 -15 -15 -15 -8 0 -15 7 -15
15 0 8 7 15 15 15 8 0 15 -7 15 -15z m-580 -35 c0 -11 -4 -22 -10 -25 -5 -3
-10 -3 -10 2 0 4 -3 18 -6 31 -5 18 -3 21 10 16 9 -3 16 -14 16 -24z m-1470
10 c0 -5 -2 -10 -4 -10 -3 0 -8 5 -11 10 -3 6 -1 10 4 10 6 0 11 -4 11 -10z
m1234 -16 c6 -10 15 -22 20 -25 4 -4 4 -9 -2 -13 -10 -6 -36 19 -45 47 -9 25
13 17 27 -9z m-819 -44 c3 -5 1 -10 -4 -10 -6 0 -11 5 -11 10 0 6 2 10 4 10 3
0 8 -4 11 -10z m1605 -4 c0 -3 -4 -8 -10 -11 -5 -3 -10 -1 -10 4 0 6 5 11 10
11 6 0 10 -2 10 -4z m-1860 -34 c0 -13 -12 -22 -22 -16 -10 6 -1 24 13 24 5 0
9 -4 9 -8z"/>
<path d="M2324 3425 c10 -7 15 -18 12 -24 -4 -5 2 -9 11 -9 10 0 27 -3 38 -8
11 -4 4 6 -16 24 -20 18 -43 32 -50 32 -10 -1 -8 -5 5 -15z"/>
<path d="M2289 3357 c7 -9 19 -17 26 -17 6 0 20 -9 30 -20 20 -22 35 -26 35
-10 0 6 -7 10 -15 10 -7 0 -18 7 -23 16 -5 8 -15 16 -23 17 -8 2 -21 7 -29 12
-13 8 -13 7 -1 -8z"/>
<path d="M2246 3332 c25 -23 84 -52 84 -43 0 7 -11 16 -24 21 -13 5 -27 14
-31 19 -3 6 -14 11 -23 11 -9 0 -12 -3 -6 -8z"/>
<path d="M3657 3280 c6 -7 23 -14 37 -15 14 -2 31 -6 38 -10 8 -5 7 -1 -2 8
-8 9 -31 19 -50 23 -28 5 -33 4 -23 -6z"/>
<path d="M2750 3235 c15 -18 18 -16 -45 -21 -73 -6 -75 -7 -69 -16 7 -11 -9
-10 -21 1 -20 17 -63 21 -69 6 -4 -11 1 -13 24 -9 25 5 30 3 35 -19 7 -25 42
-48 83 -53 32 -4 18 13 -18 21 -20 4 -30 13 -30 25 0 23 19 30 84 30 39 0 57
-5 69 -18 25 -27 22 -30 -30 -38 -43 -6 -45 -8 -23 -16 15 -5 33 -5 45 0 14 7
24 5 34 -5 12 -13 11 -14 -7 -9 -12 4 -30 2 -39 -4 -15 -10 -14 -10 8 -6 18 4
35 -1 52 -14 14 -11 31 -20 39 -20 8 0 18 -4 24 -9 10 -10 34 -14 77 -12 40 1
26 16 -19 19 -46 3 -54 8 -54 33 0 19 -43 44 -60 34 -9 -5 -20 18 -20 42 0 12
3 13 13 4 11 -8 17 -5 26 15 6 15 9 29 6 32 -3 3 -5 0 -5 -7 0 -8 -8 -11 -20
-8 -13 3 -18 1 -13 -6 4 -7 0 -8 -11 -4 -10 4 -24 7 -31 7 -8 0 -17 9 -20 20
-3 11 -11 20 -17 20 -6 0 -6 -6 2 -15z"/>
<path d="M2785 3230 c-3 -5 -2 -10 4 -10 5 0 13 5 16 10 3 6 2 10 -4 10 -5 0
-13 -4 -16 -10z"/>
<path d="M3535 3230 c-4 -6 3 -10 14 -10 25 0 27 6 6 13 -8 4 -17 2 -20 -3z"/>
<path d="M2335 3210 c3 -5 13 -10 21 -10 8 0 12 5 9 10 -3 6 -13 10 -21 10 -8
0 -12 -4 -9 -10z"/>
<path d="M2500 3165 c16 -19 6 -30 -27 -30 -15 0 -28 -6 -30 -12 -6 -16 73
-18 82 -3 3 6 23 10 43 10 l37 1 -50 24 c-58 29 -73 31 -55 10z"/>
<path d="M3453 3173 c-7 -2 -13 -9 -13 -14 0 -4 7 -6 15 -3 16 7 21 -11 5 -21
-11 -7 -2 -35 12 -35 5 0 6 5 3 10 -10 16 5 51 18 43 7 -4 6 1 -2 10 -14 18
-18 19 -38 10z"/>
<path d="M2630 3109 c0 -5 4 -8 9 -4 6 3 14 -3 20 -12 9 -16 10 -16 11 -2 0 9
-7 20 -16 23 -21 8 -24 8 -24 -5z"/>
<path d="M3505 3110 c3 -5 8 -10 11 -10 2 0 4 5 4 10 0 6 -5 10 -11 10 -5 0
-7 -4 -4 -10z"/>
<path d="M2930 3101 c0 -6 5 -13 10 -16 6 -3 10 1 10 9 0 9 -4 16 -10 16 -5 0
-10 -4 -10 -9z"/>
<path d="M2819 3021 c12 -22 45 -33 60 -18 14 14 -12 37 -44 37 -22 0 -24 -3
-16 -19z"/>
<path d="M2437 3013 c-9 -14 94 -36 107 -23 5 5 7 13 3 16 -11 11 -104 17
-110 7z"/>
<path d="M1856 2975 c-3 -9 0 -15 9 -15 8 0 15 -4 15 -9 0 -5 8 -8 17 -7 10 0
19 -7 21 -16 2 -13 -1 -16 -13 -12 -13 5 -16 2 -14 -11 5 -21 39 -30 39 -9 0
8 5 14 11 14 7 0 17 7 24 16 12 17 40 24 115 28 46 2 68 20 27 22 -12 0 -30 4
-39 8 -9 4 -25 3 -35 -2 -10 -6 -48 -13 -85 -17 -59 -6 -68 -5 -68 9 0 20 -16
21 -24 1z"/>
<path d="M1777 2908 c-21 -22 -16 -34 9 -24 9 4 14 9 11 13 -4 3 1 12 11 19
14 11 14 13 2 13 -8 0 -23 -10 -33 -21z"/>
<path d="M1833 2914 c-8 -8 -9 -15 -3 -19 6 -3 10 -2 10 4 0 5 8 11 18 13 14
3 14 5 2 10 -8 3 -21 0 -27 -8z"/>
<path d="M2078 2923 c-30 -8 -20 -18 17 -17 31 1 66 14 37 14 -5 0 -16 2 -24
4 -7 2 -21 2 -30 -1z"/>
<path d="M1990 2910 c-20 -6 -21 -8 -5 -8 11 0 31 4 45 8 20 6 21 8 5 8 -11 0
-31 -4 -45 -8z"/>
<path d="M1125 3150 c3 -5 10 -10 16 -10 5 0 9 5 9 10 0 6 -7 10 -16 10 -8 0
-12 -4 -9 -10z"/>
<path d="M1150 3056 c0 -2 9 -6 20 -9 11 -3 20 -1 20 4 0 5 -9 9 -20 9 -11 0
-20 -2 -20 -4z"/>
<path d="M1204 3043 c3 -4 17 -8 29 -10 17 -2 19 -1 7 7 -17 11 -47 14 -36 3z"/>
<path d="M1127 3023 c4 -9 10 -10 24 -2 24 13 24 14 -5 14 -14 0 -22 -5 -19
-12z"/>
<path d="M2810 2700 c0 -5 4 -10 9 -10 6 0 13 5 16 10 3 6 -1 10 -9 10 -9 0
-16 -4 -16 -10z"/>
<path d="M1970 2682 c13 -9 33 -25 42 -34 21 -21 28 -22 28 -5 0 7 -17 23 -39
35 -46 26 -67 28 -31 4z"/>
<path d="M2100 2676 c0 -2 7 -23 15 -46 8 -24 15 -78 15 -124 1 -60 3 -76 11
-63 17 29 28 19 22 -20 -3 -21 -2 -34 3 -30 4 4 8 36 9 70 0 46 4 61 14 59 9
-2 11 3 7 13 -3 9 -6 19 -6 21 0 3 -5 2 -12 -2 -8 -5 -9 0 -5 16 6 25 -16 89
-36 102 -12 8 -37 11 -37 4z"/>
<path d="M2360 2661 c0 -5 6 -11 13 -14 6 -2 3 -3 -7 -1 -36 6 -46 -13 -31
-57 15 -41 15 -41 15 -61 0 -7 12 7 25 31 19 32 22 47 15 56 -8 9 -8 15 0 20
18 11 11 35 -10 35 -11 0 -20 -4 -20 -9z"/>
<path d="M2778 2625 c-10 -25 -13 -45 -9 -45 9 0 36 78 30 85 -3 2 -12 -16
-21 -40z"/>
<path d="M2064 2638 c-11 -34 -6 -76 13 -105 l17 -26 9 39 c5 25 4 52 -4 77
-14 42 -24 47 -35 15z"/>
<path d="M2242 2632 c-14 -9 -6 -92 9 -92 4 0 9 -10 11 -22 3 -15 7 -7 12 24
7 38 5 51 -8 63 -20 21 -21 32 -1 15 17 -14 31 -8 20 9 -7 13 -25 14 -43 3z"/>
<path d="M1700 2583 c0 -10 -7 -27 -15 -37 -22 -29 -18 -42 4 -15 11 13 23 21
27 17 10 -11 -26 -48 -47 -48 -9 0 -20 6 -22 13 -3 6 -6 -4 -6 -24 -1 -20 -4
-39 -8 -43 -4 -3 -6 -52 -4 -108 2 -84 6 -107 23 -131 25 -35 38 -22 38 41 0
30 3 41 12 36 8 -5 9 0 6 14 -4 12 -3 20 2 17 4 -2 15 22 24 55 17 60 36 87
36 51 0 -10 -9 -48 -20 -82 -10 -35 -17 -65 -15 -67 6 -6 37 70 38 95 1 13 5
23 8 23 15 0 15 50 0 66 -15 15 -15 16 1 11 20 -7 29 22 19 61 -6 21 -14 28
-37 30 -17 2 -24 -1 -17 -5 8 -6 -1 -34 -33 -98 -51 -101 -51 -102 -49 -77 1
20 26 84 35 92 16 14 29 63 23 90 -6 35 -23 50 -23 23z m-53 -255 c-3 -8 -6
-5 -6 6 -1 11 2 17 5 13 3 -3 4 -12 1 -19z"/>
<path d="M2387 2536 c-9 -20 -13 -36 -9 -36 12 0 35 46 30 60 -2 6 -11 -5 -21
-24z"/>
<path d="M2057 2495 c4 -22 7 -74 6 -115 -1 -75 0 -76 32 -97 l33 -22 -9 32
c-5 17 -9 55 -9 83 0 38 -8 64 -30 105 l-31 54 8 -40z"/>
<path d="M2230 2452 c0 -63 2 -72 18 -72 15 0 18 8 17 48 -1 27 -8 58 -18 72
-17 24 -17 23 -17 -48z"/>
<path d="M1873 2470 c18 -64 28 -131 29 -203 0 -63 3 -74 13 -61 9 13 14 14
20 5 5 -9 11 -4 21 14 15 30 18 58 7 69 -5 4 -8 11 -8 14 -4 60 -40 148 -71
173 -16 13 -17 12 -11 -11z"/>
<path d="M1190 2473 c-27 -5 -110 -83 -89 -83 8 0 20 9 27 21 7 12 16 18 19
16 10 -11 -32 -53 -49 -49 -25 5 -44 -39 -29 -67 7 -12 17 -18 23 -15 6 4 8 3
5 -3 -3 -5 28 -45 70 -88 70 -74 75 -77 68 -47 -13 62 -8 117 15 167 28 63 27
101 -6 132 -14 12 -26 22 -27 22 -1 -1 -13 -4 -27 -6z"/>
<path d="M1388 2433 c5 -10 7 -24 4 -32 -3 -9 0 -11 8 -6 9 6 10 1 5 -16 -7
-21 -6 -22 8 -11 13 11 17 10 26 -5 6 -10 11 -14 11 -10 0 10 -59 97 -66 97
-3 0 -1 -8 4 -17z"/>
<path d="M1822 2400 c0 -14 2 -19 5 -12 2 6 2 18 0 25 -3 6 -5 1 -5 -13z"/>
<path d="M1299 2368 c-27 -48 -51 -109 -45 -115 2 -3 10 11 17 30 7 20 18 33
24 30 7 -2 15 3 19 12 3 9 2 14 -3 11 -5 -4 -4 5 2 19 10 20 13 21 18 8 5 -15
6 -14 13 2 4 11 1 24 -7 32 -11 11 -17 6 -38 -29z"/>
<path d="M1550 2365 c-10 -20 -11 -28 -2 -37 9 -9 12 -7 12 9 0 12 5 25 10 28
12 7 13 25 2 25 -5 0 -15 -11 -22 -25z"/>
<path d="M1353 2348 c-20 -26 -26 -41 -15 -34 12 7 36 46 29 46 -3 0 -9 -6
-14 -12z"/>
<path d="M1414 2346 c-14 -14 7 -79 37 -116 l20 -25 -13 30 c-7 17 -15 32 -19
35 -4 3 -10 21 -13 40 -5 25 -4 31 3 20 5 -8 12 -12 15 -10 2 3 -1 12 -7 21
-9 12 -15 13 -23 5z"/>
<path d="M1581 2344 c0 -11 3 -14 6 -6 3 7 2 16 -1 19 -3 4 -6 -2 -5 -13z"/>
<path d="M2783 2353 c-7 -3 -13 -11 -13 -20 0 -12 2 -12 16 2 18 17 16 25 -3
18z"/>
<path d="M1460 2332 c0 -4 10 -13 23 -21 22 -14 22 -14 3 8 -20 22 -26 25 -26
13z"/>
<path d="M1760 2254 c-18 -36 -29 -68 -26 -71 3 -4 6 -1 6 6 0 7 5 9 12 5 7
-4 8 -3 4 4 -4 7 -1 12 6 12 9 0 9 3 -2 10 -8 5 -10 10 -3 10 6 0 18 20 26 45
9 25 14 45 12 45 -2 0 -18 -30 -35 -66z"/>
<path d="M838 2274 c-5 -4 -8 -13 -8 -19 0 -18 47 -65 56 -57 4 4 4 1 0 -5 -4
-7 -2 -21 3 -30 10 -17 10 -16 11 2 1 12 7 5 16 -20 8 -22 20 -44 26 -50 8 -7
9 -5 3 10 -4 11 -15 46 -23 78 -13 49 -16 55 -27 40 -11 -15 -14 -15 -28 -2
-8 9 -17 26 -19 38 -1 13 -6 19 -10 15z"/>
<path d="M1250 2221 c0 -6 4 -13 10 -16 6 -3 7 1 4 9 -7 18 -14 21 -14 7z"/>
<path d="M840 2203 c0 -5 7 -18 15 -29 13 -18 14 -18 8 4 -5 22 -23 41 -23 25z"/>
<path d="M2645 2200 c-3 -6 1 -7 9 -4 18 7 21 14 7 14 -6 0 -13 -4 -16 -10z"/>
<path d="M2505 2190 c-3 -5 -1 -10 4 -10 6 0 11 5 11 10 0 6 -2 10 -4 10 -3 0
-8 -4 -11 -10z"/>
<path d="M750 2181 c0 -5 6 -14 14 -20 12 -10 13 -8 9 8 -5 21 -23 30 -23 12z"/>
<path d="M950 2167 c0 -16 58 -137 65 -137 2 0 0 11 -5 25 -6 15 -6 26 1 30 5
4 9 3 8 -2 -4 -19 24 -73 38 -73 8 0 11 -4 8 -10 -3 -5 -1 -10 4 -10 6 0 11 6
11 13 0 8 3 7 10 -3 5 -8 12 -12 15 -8 4 3 -8 21 -26 39 -18 19 -33 36 -32 39
1 3 -3 4 -8 3 -5 -2 -8 1 -6 5 1 5 -17 30 -40 55 -24 26 -43 41 -43 34z m48
-72 c-3 -3 -9 2 -12 12 -6 14 -5 15 5 6 7 -7 10 -15 7 -18z"/>
<path d="M2595 2130 c-8 -9 -15 -20 -15 -25 0 -5 7 0 15 11 14 18 14 18 15 -5
0 -20 2 -21 15 -11 19 16 19 47 0 47 -8 0 -22 -8 -30 -17z"/>
<path d="M2420 2099 c0 -5 5 -7 10 -4 6 3 10 8 10 11 0 2 -4 4 -10 4 -5 0 -10
-5 -10 -11z"/>
<path d="M800 2081 c0 -6 4 -13 10 -16 6 -3 7 1 4 9 -7 18 -14 21 -14 7z"/>
<path d="M2560 2080 c-9 -6 -10 -10 -3 -10 6 0 15 5 18 10 8 12 4 12 -15 0z"/>
<path d="M683 2057 c4 -10 7 -25 7 -33 0 -9 4 -12 10 -9 6 4 7 -2 1 -17 -11
-30 -2 -42 69 -93 30 -22 57 -43 58 -47 2 -5 9 -8 15 -8 6 0 21 -10 32 -23 33
-37 77 -67 88 -60 5 3 7 1 4 -5 -7 -10 25 -40 131 -127 47 -38 69 -48 34 -15
-12 12 -22 26 -22 33 0 17 -187 196 -248 237 -29 20 -52 43 -52 53 0 9 -10 25
-22 35 -12 9 -42 35 -66 57 -28 24 -43 33 -39 22z m112 -98 c11 -17 -1 -21
-15 -4 -8 9 -8 15 -2 15 6 0 14 -5 17 -11z"/>
<path d="M1273 2018 l-1 -43 10 34 c5 20 6 37 0 43 -5 5 -9 -9 -9 -34z"/>
<path d="M625 2019 c-4 -6 -5 -12 -2 -15 2 -3 7 2 10 11 7 17 1 20 -8 4z"/>
<path d="M667 2013 c-4 -3 -7 -11 -7 -17 0 -6 5 -5 12 2 6 6 9 14 7 17 -3 3
-9 2 -12 -2z"/>
<path d="M847 2010 c5 -8 31 -44 58 -78 35 -47 50 -60 56 -50 7 9 8 7 7 -8 -4
-27 136 -184 163 -184 10 0 19 5 19 10 0 9 -12 13 -30 12 -3 0 -6 8 -6 18 0
18 2 18 23 5 21 -14 23 -14 23 0 0 8 -4 15 -9 15 -5 0 -33 24 -62 53 -36 34
-62 52 -76 51 -12 -1 -20 3 -17 8 7 10 -52 79 -60 71 -3 -4 -27 16 -52 43 -26
27 -42 42 -37 34z m223 -215 l25 -30 -25 20 c-29 23 -40 36 -40 50 0 6 3 6 8
0 4 -6 18 -23 32 -40z"/>
<path d="M1123 1998 c4 -11 0 -18 -11 -20 -9 -2 -13 -6 -7 -10 6 -3 18 0 28 7
16 12 16 13 0 26 -15 12 -16 12 -10 -3z"/>
<path d="M2318 1977 c-4 -9 -19 -22 -33 -29 -14 -6 -25 -17 -25 -25 0 -17 -17
-17 -23 0 -2 6 -6 1 -8 -13 -6 -30 25 -118 35 -102 4 7 15 12 25 12 10 0 26 9
36 20 10 11 13 20 8 20 -6 0 -13 -7 -17 -15 -6 -17 -32 -20 -41 -5 -3 6 1 17
10 26 26 27 46 74 43 102 -2 22 -4 24 -10 9z"/>
<path d="M2185 1919 c-7 -48 -32 -89 -55 -89 -5 0 -10 -7 -10 -15 0 -8 -4 -15
-10 -15 -19 0 -10 -49 11 -60 22 -12 54 4 43 21 -3 5 2 12 10 15 9 3 16 10 16
16 0 5 -4 6 -10 3 -5 -3 -10 -1 -10 4 0 6 4 11 9 11 6 0 9 8 9 18 -1 26 12
124 18 134 3 4 1 8 -4 8 -6 0 -13 -23 -17 -51z"/>
<path d="M2354 1955 c-3 -8 -4 -20 -1 -27 2 -7 -3 -21 -12 -32 -15 -17 -15
-18 4 -14 11 2 19 10 18 16 -2 7 2 12 7 12 7 0 7 6 0 19 -8 16 -6 22 7 30 17
10 17 10 0 11 -10 0 -20 -7 -23 -15z"/>
<path d="M2408 1963 c7 -3 16 -2 19 1 4 3 -2 6 -13 5 -11 0 -14 -3 -6 -6z"/>
<path d="M2097 1850 c-3 -11 -1 -20 4 -20 5 0 9 9 9 20 0 11 -2 20 -4 20 -2 0
-6 -9 -9 -20z"/>
<path d="M1510 1705 c7 -9 19 -14 27 -11 16 6 18 -10 2 -20 -8 -5 -6 -10 5
-16 19 -11 36 -3 36 18 0 8 5 12 10 9 7 -4 7 -12 0 -25 -14 -25 -13 -30 4 -24
9 3 12 12 8 22 -5 15 -4 15 11 3 10 -8 17 -9 17 -3 0 16 -82 62 -110 62 -19 0
-21 -2 -10 -15z"/>
<path d="M1727 1620 c-13 -16 -15 -25 -7 -40 15 -27 19 -25 18 9 -1 15 2 33 6
40 11 18 2 13 -17 -9z"/>
<path d="M2011 1599 c-13 -5 -22 -11 -20 -14 8 -7 49 7 49 16 0 5 -1 9 -2 8
-2 0 -14 -5 -27 -10z"/>
<path d="M1220 1591 c0 -6 18 -18 40 -27 22 -9 40 -20 40 -25 0 -5 6 -6 14 -3
15 6 48 -34 40 -48 -3 -4 0 -8 5 -8 17 0 12 33 -8 57 -10 12 -38 27 -62 33
-24 7 -50 17 -56 22 -9 7 -13 7 -13 -1z"/>
<path d="M1960 1593 c-15 -6 -41 -36 -35 -41 1 -2 15 8 30 22 29 27 29 28 5
19z"/>
<path d="M1350 1582 c0 -6 11 -24 25 -39 18 -20 23 -22 18 -9 -4 11 -2 17 3
13 6 -3 16 -2 23 2 9 6 10 11 2 15 -6 4 -11 2 -11 -5 0 -8 -4 -8 -15 1 -8 7
-15 9 -15 4 0 -5 -7 0 -15 10 -8 11 -15 15 -15 8z"/>
<path d="M1320 1480 c0 -5 5 -10 11 -10 5 0 7 5 4 10 -3 6 -8 10 -11 10 -2 0
-4 -4 -4 -10z"/>
<path d="M595 2469 c-4 -6 -5 -12 -2 -15 2 -3 7 2 10 11 7 17 1 20 -8 4z"/>
<path d="M1165 1390 c-3 -5 -1 -10 4 -10 6 0 11 5 11 10 0 6 -2 10 -4 10 -3 0
-8 -4 -11 -10z"/>
<path d="M1476 1285 c-3 -8 -1 -15 4 -15 6 0 10 7 10 15 0 8 -2 15 -4 15 -2 0
-6 -7 -10 -15z"/>
<path d="M1980 1135 c-14 -16 -10 -18 14 -9 9 3 16 10 16 15 0 14 -16 11 -30
-6z"/>
<path d="M2059 1088 c-8 -16 -2 -58 8 -58 8 0 13 12 13 30 0 17 -4 30 -10 30
-5 0 -11 -1 -11 -2z"/>
<path d="M2092 1035 c4 -4 3 -14 -4 -22 -6 -7 -9 -15 -7 -18 3 -2 10 4 17 15
9 15 9 21 -1 26 -6 4 -9 4 -5 -1z"/>
<path d="M2048 1013 c7 -3 16 -2 19 1 4 3 -2 6 -13 5 -11 0 -14 -3 -6 -6z"/>
<path d="M2020 992 c0 -4 6 -14 13 -23 11 -15 15 -15 32 -2 17 13 17 15 3 10
-10 -4 -18 -2 -18 2 0 5 -7 11 -15 15 -8 3 -15 2 -15 -2z"/>
<path d="M1890 969 c0 -5 5 -7 10 -4 6 3 10 8 10 11 0 2 -4 4 -10 4 -5 0 -10
-5 -10 -11z"/>
<path d="M1924 926 c-8 -22 3 -33 18 -18 9 9 9 15 0 24 -9 9 -13 7 -18 -6z"/>
<path d="M2000 915 c-8 -9 -8 -15 -2 -15 12 0 26 19 19 26 -2 2 -10 -2 -17
-11z"/>
<path d="M3305 1000 c-3 -5 -1 -10 4 -10 6 0 11 5 11 10 0 6 -2 10 -4 10 -3 0
-8 -4 -11 -10z"/>
<path d="M1305 490 c-4 -6 6 -10 22 -10 22 0 25 2 13 10 -19 12 -27 12 -35 0z"/>
<path d="M2960 205 c-11 -13 -10 -14 4 -9 9 3 16 10 16 15 0 13 -6 11 -20 -6z"/>
<path d="M1913 3607 c-18 -7 -38 -18 -45 -26 -11 -11 -9 -11 12 0 14 7 43 18
65 25 22 7 31 13 20 13 -11 0 -34 -6 -52 -12z"/>
<path d="M3135 3550 c-3 -6 1 -7 9 -4 18 7 21 14 7 14 -6 0 -13 -4 -16 -10z"/>
<path d="M466 3257 c-14 -14 -16 -22 -7 -25 9 -3 9 -7 0 -18 -6 -8 -16 -14
-21 -14 -6 0 -5 7 2 15 10 12 10 15 -3 15 -10 0 -14 7 -11 23 2 12 2 16 -2 10
-3 -7 -12 -13 -20 -13 -8 0 -14 -4 -14 -10 0 -5 5 -10 10 -10 19 0 10 -18 -11
-23 -15 -4 -20 -11 -15 -22 9 -24 -3 -38 -19 -25 -8 7 -18 9 -23 6 -16 -10
-19 -51 -6 -64 15 -14 44 -16 44 -4 0 5 12 14 26 21 22 10 26 9 21 -3 -5 -12
-1 -13 18 -6 15 6 27 6 30 -1 4 -5 11 -7 16 -4 5 4 9 -13 9 -39 0 -26 5 -46
13 -49 6 -2 0 -4 -15 -3 -20 1 -24 4 -16 13 15 18 -10 76 -29 69 -8 -4 -26 -6
-41 -6 -20 0 -23 -3 -14 -12 7 -7 12 -21 12 -32 0 -18 1 -18 19 -2 11 10 25
15 30 11 16 -9 13 -25 -5 -25 -33 0 -6 -25 41 -36 52 -14 65 -11 65 12 0 8 4
13 9 10 8 -5 21 48 21 87 0 53 -4 83 -13 95 -7 9 -7 16 1 24 7 7 12 17 12 23
0 5 -5 3 -10 -5 -8 -13 -10 -12 -10 3 0 10 -4 16 -9 13 -5 -3 -14 1 -21 9 -17
20 -41 17 -64 -8z m57 -14 c4 -3 2 -12 -4 -19 -8 -9 -5 -11 10 -7 12 3 21 1
21 -5 0 -11 -59 -22 -65 -12 -2 4 -1 16 2 28 5 21 23 29 36 15z m-91 -62 c14
-17 15 -21 2 -32 -11 -9 -14 -7 -14 11 0 16 -4 20 -15 16 -15 -5 -20 5 -8 17
10 11 17 8 35 -12z"/>
<path d="M802 3233 c-18 -9 -42 -30 -54 -47 -22 -30 -21 -30 19 6 26 23 56 39
80 43 56 10 62 13 23 14 -19 0 -50 -7 -68 -16z"/>
<path d="M706 3141 c-3 -5 -12 -36 -20 -69 -11 -46 -11 -65 -2 -77 9 -12 11
-5 11 37 1 29 8 68 17 86 9 17 13 32 8 32 -5 0 -11 -4 -14 -9z"/>
<path d="M150 2600 c0 -5 5 -10 10 -10 6 0 10 5 10 10 0 6 -4 10 -10 10 -5 0
-10 -4 -10 -10z"/>
<path d="M3694 2572 c6 -11 97 -44 103 -38 4 4 -51 30 -86 41 -15 5 -21 3 -17
-3z"/>
<path d="M3780 2490 c-13 -8 -13 -10 2 -10 9 0 20 5 23 10 8 13 -5 13 -25 0z"/>
<path d="M3818 2473 c7 -3 16 -2 19 1 4 3 -2 6 -13 5 -11 0 -14 -3 -6 -6z"/>
<path d="M426 2445 c-3 -8 -1 -25 4 -37 8 -20 9 -18 9 15 1 39 -3 47 -13 22z"/>
<path d="M3550 2435 c0 -8 4 -15 10 -15 5 0 7 7 4 15 -4 8 -8 15 -10 15 -2 0
-4 -7 -4 -15z"/>
<path d="M3588 2359 c4 -37 6 -39 20 -25 13 13 13 17 1 32 -8 9 -13 20 -11 23
2 3 0 7 -5 8 -5 2 -7 -15 -5 -38z"/>
<path d="M3855 2360 c3 -5 11 -10 16 -10 6 0 7 5 4 10 -3 6 -11 10 -16 10 -6
0 -7 -4 -4 -10z"/>
<path d="M3890 2340 c0 -5 5 -10 11 -10 5 0 7 5 4 10 -3 6 -8 10 -11 10 -2 0
-4 -4 -4 -10z"/>
<path d="M3850 2336 c0 -2 7 -7 16 -10 8 -3 12 -2 9 4 -6 10 -25 14 -25 6z"/>
<path d="M3896 2307 c4 -6 19 -30 33 -52 14 -22 31 -49 37 -60 12 -22 44 -33
44 -16 0 6 -6 11 -12 11 -13 0 -78 92 -78 109 0 5 -7 12 -16 15 -10 4 -13 2
-8 -7z"/>
<path d="M3970 2270 c0 -5 5 -10 11 -10 5 0 7 5 4 10 -3 6 -8 10 -11 10 -2 0
-4 -4 -4 -10z"/>
<path d="M3505 2238 c7 -22 7 -22 -12 -5 -21 19 -43 23 -43 7 0 -5 7 -7 15 -4
9 4 15 0 15 -10 0 -9 6 -16 14 -16 8 0 21 -3 30 -6 23 -9 20 12 -5 37 l-21 21
7 -24z"/>
<path d="M3900 2206 c0 -2 7 -7 16 -10 8 -3 12 -2 9 4 -6 10 -25 14 -25 6z"/>
<path d="M3606 2164 c-6 -16 15 -44 33 -44 14 0 14 16 1 41 -13 23 -26 24 -34
3z m29 -14 c3 -5 2 -10 -4 -10 -5 0 -13 5 -16 10 -3 6 -2 10 4 10 5 0 13 -4
16 -10z"/>
<path d="M3986 2144 c-3 -7 1 -15 8 -17 8 -3 30 -29 49 -59 28 -40 33 -54 22
-56 -20 -5 -19 -16 5 -37 33 -30 50 -27 50 6 0 16 -5 29 -11 29 -6 0 -8 8 -4
19 4 14 0 21 -15 26 -11 4 -28 18 -37 32 -14 21 -14 26 -2 33 7 5 10 12 6 17
-5 4 -12 1 -17 -7 -5 -8 -13 -11 -17 -6 -4 4 0 13 9 20 15 11 14 13 -12 13
-16 0 -31 -6 -34 -13z m108 -160 c9 -24 7 -28 -9 -14 -17 14 -20 30 -6 30 5 0
12 -7 15 -16z"/>
<path d="M3995 2080 c10 -11 20 -20 22 -20 2 0 -2 9 -9 20 -7 11 -17 20 -22
20 -5 0 -1 -9 9 -20z"/>
<path d="M3456 2046 c3 -9 15 -17 25 -17 32 -2 37 -4 45 -11 12 -13 24 -9 18
6 -3 8 -17 16 -32 19 -15 3 -35 9 -45 12 -13 6 -16 3 -11 -9z"/>
<path d="M4015 2030 c3 -5 8 -10 11 -10 2 0 4 5 4 10 0 6 -5 10 -11 10 -5 0
-7 -4 -4 -10z"/>
<path d="M4045 2030 c3 -5 8 -10 11 -10 2 0 4 5 4 10 0 6 -5 10 -11 10 -5 0
-7 -4 -4 -10z"/>
<path d="M3465 1986 c-13 -13 -7 -49 6 -40 5 3 6 10 3 16 -4 6 -1 14 6 18 7 4
8 10 4 13 -5 3 -14 0 -19 -7z"/>
<path d="M3584 1971 c0 -11 3 -18 6 -16 4 2 14 -9 24 -26 10 -16 28 -40 42
-54 13 -13 24 -28 24 -33 0 -6 7 -12 14 -15 12 -5 13 -2 5 16 -5 12 -12 30
-15 40 -4 10 -12 16 -20 13 -7 -3 -17 7 -23 22 -9 25 -44 72 -53 72 -2 0 -4
-9 -4 -19z"/>
<path d="M3570 1932 c0 -12 19 -26 26 -19 2 2 -2 10 -11 17 -9 8 -15 8 -15 2z"/>
<path d="M4100 1933 c0 -4 5 -15 10 -23 8 -13 10 -13 10 2 0 9 -4 20 -10 23
-5 3 -10 3 -10 -2z"/>
<path d="M3 1868 c1 -21 6 -38 11 -38 6 0 20 -10 33 -22 13 -12 23 -17 23 -11
0 6 -4 13 -9 15 -5 2 -21 23 -35 48 l-26 45 3 -37z"/>
<path d="M50 1874 c0 -6 7 -19 16 -30 14 -18 14 -18 3 6 -14 31 -19 36 -19 24z"/>
<path d="M141 1844 c0 -11 3 -14 6 -6 3 7 2 16 -1 19 -3 4 -6 -2 -5 -13z"/>
<path d="M165 1850 c3 -5 8 -10 11 -10 2 0 4 5 4 10 0 6 -5 10 -11 10 -5 0 -7
-4 -4 -10z"/>
<path d="M4080 1845 c0 -10 29 -24 34 -17 3 6 -3 12 -14 15 -11 3 -20 4 -20 2z"/>
<path d="M4030 1806 c0 -2 7 -7 16 -10 8 -3 12 -2 9 4 -6 10 -25 14 -25 6z"/>
<path d="M74 1777 c-5 -14 2 -28 25 -50 37 -38 40 -27 7 28 -21 34 -26 37 -32
22z"/>
<path d="M178 1783 c7 -3 16 -2 19 1 4 3 -2 6 -13 5 -11 0 -14 -3 -6 -6z"/>
<path d="M216 1768 c7 -24 47 -81 75 -110 17 -17 18 -17 16 2 -1 10 -3 17 -6
15 -6 -6 -71 87 -71 102 0 7 -5 13 -11 13 -6 0 -8 -9 -3 -22z"/>
<path d="M4082 1770 c0 -14 2 -19 5 -12 2 6 2 18 0 25 -3 6 -5 1 -5 -13z"/>
<path d="M4111 1764 c0 -11 3 -14 6 -6 3 7 2 16 -1 19 -3 4 -6 -2 -5 -13z"/>
<path d="M300 1750 c0 -5 5 -10 11 -10 5 0 7 5 4 10 -3 6 -8 10 -11 10 -2 0
-4 -4 -4 -10z"/>
<path d="M4111 1694 c0 -11 3 -14 6 -6 3 7 2 16 -1 19 -3 4 -6 -2 -5 -13z"/>
<path d="M150 1663 c0 -5 20 -34 45 -65 25 -32 45 -62 45 -67 0 -5 9 -13 20
-16 11 -3 20 -12 20 -18 0 -7 9 -18 20 -25 30 -18 24 3 -7 30 -16 12 -52 56
-81 96 -52 70 -62 80 -62 65z"/>
<path d="M320 1630 c0 -5 5 -10 10 -10 6 0 10 5 10 10 0 6 -4 10 -10 10 -5 0
-10 -4 -10 -10z"/>
<path d="M135 1570 c-3 -5 -1 -10 4 -10 6 0 11 5 11 10 0 6 -2 10 -4 10 -3 0
-8 -4 -11 -10z"/>
<path d="M430 1572 c0 -5 14 -21 30 -37 35 -34 41 -18 6 19 -24 27 -36 32 -36
18z"/>
<path d="M490 1555 c7 -8 19 -15 27 -15 12 0 13 -3 4 -14 -10 -11 -7 -19 10
-35 27 -25 35 -21 18 11 -7 12 -15 30 -20 38 -4 8 -12 14 -18 13 -6 -2 -11 2
-11 7 0 6 -5 10 -11 10 -8 0 -8 -5 1 -15z"/>
<path d="M595 1520 c10 -11 15 -23 12 -26 -4 -4 -15 4 -26 17 -11 13 -22 21
-26 17 -8 -8 23 -42 47 -51 9 -3 19 0 21 7 6 16 -19 56 -35 56 -6 0 -3 -9 7
-20z"/>
<path d="M657 1499 c7 -7 15 -10 18 -7 3 3 -2 9 -12 12 -14 6 -15 5 -6 -5z"/>
<path d="M3910 1483 c0 -15 29 -49 30 -35 0 7 -7 20 -15 28 -8 9 -15 11 -15 7z"/>
<path d="M645 1470 c3 -5 11 -10 16 -10 6 0 7 5 4 10 -3 6 -11 10 -16 10 -6 0
-7 -4 -4 -10z"/>
<path d="M3715 1431 c-3 -5 -1 -12 5 -16 5 -3 10 1 10 9 0 18 -6 21 -15 7z"/>
<path d="M4000 1386 c0 -8 5 -18 10 -21 6 -3 10 1 10 9 0 8 -4 18 -10 21 -5 3
-10 -1 -10 -9z"/>
<path d="M105 1330 c3 -5 8 -10 11 -10 2 0 4 5 4 10 0 6 -5 10 -11 10 -5 0 -7
-4 -4 -10z"/>
<path d="M140 1305 c7 -8 17 -15 22 -15 5 0 3 7 -6 15 -8 8 -18 15 -22 15 -3
0 -1 -7 6 -15z"/>
<path d="M626 1241 c-3 -5 12 -16 34 -25 21 -8 44 -25 50 -36 12 -23 11 -24
-23 -11 -18 7 -30 6 -43 -4 -12 -9 -31 -12 -50 -9 -53 10 -47 -13 9 -31 28 -9
58 -22 66 -28 12 -9 13 -9 7 1 -9 14 3 16 24 2 13 -9 13 -11 0 -20 -12 -8 -11
-10 7 -10 44 0 32 -19 -14 -22 l-48 -3 70 -18 c39 -9 93 -18 120 -18 28 -1 64
-5 80 -8 21 -5 42 -2 68 11 21 11 48 16 60 13 21 -5 21 -4 2 5 -11 5 -33 15
-50 22 l-30 12 43 4 c38 3 50 10 37 24 -3 2 -42 0 -88 -6 -105 -14 -139 -9
-144 23 -2 14 -13 31 -24 39 -17 12 -18 16 -8 24 11 7 11 8 -1 6 -24 -4 -70
11 -70 23 0 8 13 10 35 6 48 -8 35 8 -17 21 -78 20 -97 22 -102 13z m157 -158
c-7 -2 -21 -2 -30 0 -10 3 -4 5 12 5 17 0 24 -2 18 -5z"/>
<path d="M360 1225 c0 -15 178 -71 189 -59 11 11 -43 41 -91 53 -51 11 -98 15
-98 6z"/>
<path d="M625 1180 c-3 -6 1 -7 9 -4 18 7 21 14 7 14 -6 0 -13 -4 -16 -10z"/>
<path d="M520 1108 c13 -13 121 -45 125 -38 3 5 -2 13 -12 19 -19 10 -121 27
-113 19z"/>
<path d="M1715 982 c-66 -37 -106 -65 -101 -69 5 -5 124 65 132 79 7 11 4 10
-31 -10z"/>
<path d="M1366 967 c3 -10 9 -15 12 -12 3 3 0 11 -7 18 -10 9 -11 8 -5 -6z"/>
<path d="M1425 960 c-3 -5 -2 -10 4 -10 5 0 13 5 16 10 3 6 2 10 -4 10 -5 0
-13 -4 -16 -10z"/>
<path d="M835 770 c-15 -6 -9 -9 25 -9 34 0 40 3 25 9 -11 5 -22 9 -25 9 -3 0
-14 -4 -25 -9z"/>
<path d="M3546 15 c-3 -8 -1 -15 4 -15 6 0 10 7 10 15 0 19 -6 19 -14 0z"/>
</g>
</svg>
